<svg version="1.1" id="Capa_1" xmlns="http://www.w3.org/2000/svg" xmlns:xlink="http://www.w3.org/1999/xlink" x="0px" y="0px" viewBox="0 0 1200 1200" enable-background="new 0 0 1200 1200" xml:space="preserve">
<g>
	<path fill="#180E26" d="M349.828,654.189c3.236-0.351,5.576-3.261,5.223-6.498c-0.355-3.237-3.25-5.585-6.499-5.224&#10;&#9;&#9;c-11.681,1.269-25.347,2.23-38.144-0.271c-13.072-2.552-23.988-8.623-30.742-17.095c-2.031-2.545-5.744-2.967-8.286-0.934&#10;&#9;&#9;c-2.545,2.03-2.964,5.739-0.935,8.285c8.498,10.658,21.888,18.228,37.702,21.316c6.674,1.303,13.438,1.781,20.031,1.781&#10;&#9;&#9;C335.759,655.55,343.11,654.919,349.828,654.189z" style="fill: rgb(79, 79, 79);"/>
	<path fill="#180E26" d="M880.252,728.687c-19.074,0.926-40.83,3.048-58.162,11.581c-29.311,4.873-60.561-2.873-84.267-20.79&#10;&#9;&#9;c-0.783-8.954,3.557-14.664,10.429-23.67l0.567-0.742c1.974-2.591,1.474-6.289-1.115-8.263c-2.591-1.974-6.289-1.476-8.263,1.115&#10;&#9;&#9;l-0.562,0.737c-7.132,9.347-13.388,17.574-12.922,29.973c-39.177,13.144-84.211,10.49-121.415-7.412&#10;&#9;&#9;c-1.278-0.616-2.554-1.249-3.832-1.883c-2.158-1.072-4.343-2.148-6.573-3.164c6.865-5.7,8.118-12.206,7.595-17.351&#10;&#9;&#9;c-2.918-28.794-24.893-51.034-43.713-67.194c-2.469-2.119-6.193-1.84-8.314,0.633c-2.121,2.47-1.838,6.193,0.631,8.314&#10;&#9;&#9;c17.157,14.73,37.168,34.797,39.664,59.438c0.17,1.68,0.641,6.66-10.899,11.309c-0.088-0.014-0.172-0.036-0.259-0.048&#10;&#9;&#9;c-10.195-1.523-19.925,0.941-29.324,3.322c-1.237,0.313-2.471,0.626-3.701,0.928c-50.17,12.298-105.518,6.251-151.849-16.588&#10;&#9;&#9;c-2.92-1.439-6.458-0.24-7.895,2.683c-1.439,2.92-0.24,6.454,2.681,7.895c48.784,24.045,107.047,30.409,159.871,17.462&#10;&#9;&#9;c1.26-0.309,2.522-0.628,3.788-0.949c8.65-2.192,16.837-4.259,24.693-3.091c6.195,0.922,12.104,3.856,18.359,6.962&#10;&#9;&#9;c1.322,0.656,2.642,1.312,3.963,1.947c40.406,19.442,89.427,22.182,131.82,7.495c6.286,4.691,13.052,8.725,20.14,12.096&#10;&#9;&#9;c3.048,3.923,4.208,9.482,3.139,15.47c-1.278,7.156-5.474,13.411-10.951,16.323c-2.874,1.529-3.966,5.098-2.437,7.974&#10;&#9;&#9;c1.059,1.993,3.1,3.129,5.209,3.129c0.935,0,1.882-0.222,2.764-0.691c8.728-4.642,15.091-13.861,17.021-24.661&#10;&#9;&#9;c0.713-3.992,0.728-7.904,0.143-11.601c12.378,4.026,25.393,6.127,38.393,6.127c6.171,0,12.336-0.497,18.432-1.46&#10;&#9;&#9;c8.386,3.617,16.759,11.811,19.077,18.856c0.818,2.481,3.123,4.054,5.601,4.054c0.61,0,1.232-0.096,1.842-0.297&#10;&#9;&#9;c3.093-1.018,4.776-4.35,3.758-7.443c-2.604-7.91-9.02-15.159-16.018-20.344c13.875-4.384,30.054-5.752,43.461-6.402&#10;&#9;&#9;c3.252-0.157,5.762-2.922,5.603-6.174C886.27,731.038,883.453,728.523,880.252,728.687z" style="fill: rgb(79, 79, 79);"/>
	<path fill="#180E26" d="M1148.998,590.653c-1.854-10.089-7.588-21.299-15.265-31.42c5.021-10.949,3.746-25.079-3.783-40.36&#10;&#9;&#9;c-13.811-28.013-28.089-56.98-48.597-81.774c-22.251-26.901-49.671-44.89-77.569-50.976&#10;&#9;&#9;c-14.893-42.427-58.922-72.255-103.97-69.901c-0.083,0.005-0.168,0.01-0.253,0.02l-3.464,0.332&#10;&#9;&#9;c-20.619-27.818-50.069-48.485-83.29-58.369c-3.534-1.052-7.109-1.97-10.693-2.805c4.492-2.555,8.544-5.329,11.188-7.724&#10;&#9;&#9;c7.093-6.425,10.036-14.087,8.077-21.025c-2.552-9.027-12.261-13.026-20.096-12.199c-7.238,0.761-13.339,4.782-18.355,8.617&#10;&#9;&#9;c-6.684,5.115-16.319,15.693-20.461,25.845c-2.248-0.169-4.429-0.271-6.558-0.319c8.272-15.094,16.419-36.988,9.196-56.745&#10;&#9;&#9;c-1.909-5.223-4.592-8.889-8.201-11.21c-6.6-4.244-16.102-3.119-22.588,2.67c-4.583,4.088-7.628,9.942-9.304,17.899&#10;&#9;&#9;c-3.114,14.8-2.044,35.84,5.126,50.599c-1.985,0.634-3.887,1.362-5.71,2.183c-3.179-17.406-12.851-34.843-26.529-47.141&#10;&#9;&#9;c-2.216-1.989-4.733-3.928-8.132-4.635c-3.952-0.822-7.835,0.244-10.953,2.993c-5.083,4.478-6.911,12.145-6.469,17.758&#10;&#9;&#9;c0.451,5.726,2.012,11.111,4.214,16.136c-14.784-2.586-30.115-1.845-44.58,2.204c-1.966-4.263-4.155-8.421-6.608-12.421&#10;&#9;&#9;c-3.385-5.519-7.231-10.825-10.948-15.956c-8.383-11.568-16.3-22.494-19.036-35.305c-0.018-0.083-0.06-0.157-0.081-0.238&#10;&#9;&#9;c-0.081-0.311-0.177-0.615-0.307-0.907c-0.061-0.14-0.137-0.269-0.21-0.403c-0.128-0.236-0.265-0.464-0.424-0.683&#10;&#9;&#9;c-0.093-0.128-0.192-0.25-0.296-0.37c-0.173-0.203-0.362-0.388-0.564-0.567c-0.117-0.105-0.233-0.208-0.359-0.304&#10;&#9;&#9;c-0.22-0.165-0.458-0.304-0.705-0.439c-0.102-0.058-0.19-0.136-0.297-0.187c-0.036-0.016-0.075-0.021-0.111-0.037&#10;&#9;&#9;c-0.042-0.018-0.075-0.046-0.117-0.064c-0.263-0.111-0.531-0.176-0.799-0.248c-0.1-0.026-0.195-0.07-0.296-0.091&#10;&#9;&#9;c-0.418-0.088-0.837-0.127-1.255-0.123c-0.097,0.001-0.191,0.023-0.288,0.029c-0.321,0.018-0.638,0.054-0.949,0.124&#10;&#9;&#9;c-0.144,0.032-0.282,0.083-0.425,0.127c-0.263,0.081-0.519,0.173-0.768,0.289c-0.07,0.032-0.146,0.045-0.215,0.081&#10;&#9;&#9;c-26.553,13.667-51.527,27.943-65.821,50.533c-0.343-0.433-0.7-0.854-1.071-1.264c-1.61-1.778-4.141-2.4-6.386-1.581&#10;&#9;&#9;c-16.113,5.867-29.171,18.706-35.423,34.626c-3.469-0.605-7.162-1.188-10.961-1.301c-6.671-7.86-23.887-19.785-34.66-20.985&#10;&#9;&#9;c-9.662-1.077-19.667,1.186-28.074,6.103c-1.648-5.623-2.737-11.256-3.293-16.823c14.018-0.491,43.287-2.963,53.101-14.886&#10;&#9;&#9;c3.074-3.735,4.214-8.18,3.296-12.853c-0.967-4.926-3.818-8.789-8.247-11.174c-10.937-5.889-30.707-1.255-43.35,2.768&#10;&#9;&#9;c0.942-2.382,1.948-4.76,3.032-7.243c2.038-4.677,4.11-9.471,5.631-14.536c6.104,2.401,12.954,4.996,20.107,4.996&#10;&#9;&#9;c0.039,0,0.081,0,0.12,0c5.35-0.022,13.198-0.599,19.591-5.337c6.402-4.749,10.403-14.444,6.013-22.449&#10;&#9;&#9;c-3.132-5.711-9.854-9.124-18-9.129c-10.274,0-22.859,4.687-30.855,12.314c-5.479-9.933-16.144-23.495-32.928-21.222&#10;&#9;&#9;c-12.137,1.64-20.543,9.373-21.415,19.7c-0.866,10.239,5.988,19.442,17.051,22.899c10.31,3.222,19.998,2.12,27.171,0.188&#10;&#9;&#9;c-1.005,2.591-2.133,5.198-3.296,7.868c-1.398,3.203-2.842,6.517-4.097,9.917c-0.552,1.495-1.044,3.012-1.507,4.543&#10;&#9;&#9;c-0.302-0.397-0.616-0.805-0.945-1.229c-5.435-6.996-11.591-11.654-18.297-13.846c-8.823-2.88-18.41-0.993-24.437,4.803&#10;&#9;&#9;c-7.289,7.018-7.883,19.22-1.269,26.11c3.724,3.881,9.55,5.496,15.204,4.218c5.248-1.185,9.306-4.687,10.861-9.367&#10;&#9;&#9;c1.025-3.089-0.649-6.426-3.74-7.452c-3.081-1.026-6.425,0.649-7.452,3.74c-0.355,1.07-1.824,1.479-2.266,1.579&#10;&#9;&#9;c-1.575,0.355-3.261-0.007-4.099-0.881c-2.112-2.201-1.637-6.97,0.94-9.451c2.879-2.77,7.945-3.608,12.597-2.089&#10;&#9;&#9;c4.429,1.446,8.682,4.767,12.646,9.869c4.061,5.228,5.068,6.739,6.749,14.433c-0.125,2.447-0.17,4.911-0.105,7.424&#10;&#9;&#9;c0,0.03,0.008,0.058,0.009,0.086c0.207,7.173,1.234,14.471,3.065,21.756c-4.669-1.862-9.53-2.937-13.007-3.163&#10;&#9;&#9;c-6.619-0.435-13.786,1.103-21.286,4.563c-10.313,4.755-18.599,11.767-23.962,20.274c-3.475,5.516-5.622,11.446-7.425,17.033&#10;&#9;&#9;c-0.834,2.589-1.667,5.379-2.453,8.302c-7.867,4.781-33.131,22.063-39.095,50.085c-3.674,17.264,0.706,35.084,12.967,53.05&#10;&#9;&#9;l-4.334,2.25c-14.754-9.761-31.279-25.5-42.297-43.258c-0.222-0.545-0.535-1.036-0.903-1.485&#10;&#9;&#9;c-8.787-14.665-13.732-30.614-10.772-45.661c0.117-0.596,0.26-1.198,0.418-1.802c0.281,0.481,0.577,0.964,0.911,1.451&#10;&#9;&#9;c3.814,5.544,10.559,11.026,18.668,11.024c0.889,0,1.796-0.066,2.715-0.205c8.602-1.298,15.64-9.135,17.12-19.057&#10;&#9;&#9;c0.313-2.108,0.389-4.203,0.297-6.261c3.957,2.093,8.254,3.346,12.94,3.176c10.181-0.387,19.255-8.3,21.107-18.408&#10;&#9;&#9;c1.817-9.924-3.501-20.372-12.646-24.845c-3.818-1.868-7.823-2.551-11.667-2.846c0.594-0.757,1.161-1.545,1.69-2.372&#10;&#9;&#9;c4.132-6.435,5.027-13.873,2.397-19.897c-1.465-3.359-4.039-6.365-7.653-8.934c-5.536-3.942-11.865-5.746-17.848-5.08&#10;&#9;&#9;c-0.562,0.062-1.119,0.147-1.674,0.253c-5.916,1.133-11.538,4.794-15.428,10.046c-0.617,0.836-1.195,1.706-1.732,2.614&#10;&#9;&#9;c-1.923-2.289-4.129-4.05-6.63-5.303c-6.98-3.494-15.745-2.367-21.814,2.792c-5.709,4.857-8.466,12.869-7.022,20.411&#10;&#9;&#9;c0.382,2.005,1.059,3.952,1.983,5.785c-4.231,1.232-8.051,3.464-10.967,6.568c-4.198,4.464-6.361,11.11-5.647,17.344&#10;&#9;&#9;c0.624,5.453,3.335,10.034,7.63,12.901c9.134,6.094,16.486,6.454,25.526,5.952c-1.799,3.889-3.414,8.185-4.247,12.417&#10;&#9;&#9;c-2.955,15.02,0.511,30.956,7.956,46.114c-15.87,0.953-43.933,4.384-53.02,16.663c-3.116,4.208-3.963,9.145-2.453,14.278&#10;&#9;&#9;c1.398,4.748,4.629,8.425,9.341,10.635c3.834,1.8,8.641,2.536,13.94,2.536c18.681,0,43.489-9.149,53.588-13.212&#10;&#9;&#9;c7.911,8.709,16.805,16.546,26.001,23.004c-0.101,0.136-0.215,0.269-0.31,0.404c-6.559-3.413-14.097-6.401-22.437-5.977&#10;&#9;&#9;c-10.976,0.565-21.809,7.254-31.323,19.345c-2.028,2.577-3.915,5.238-5.753,7.851c-4.987,0.675-10.785,1.474-16.639,2.282&#10;&#9;&#9;c-2.963,0.408-5.905,0.814-8.754,1.204l-0.509-0.279c-24.944-18.005-42.47-48.462-48.465-83.343&#10;&#9;&#9;c8.324,2.306,20.804,5.103,32.436,5.103c12.028,0,23.124-2.996,27.693-12.627c3.431-7.233,1.93-14.596-4.115-20.204&#10;&#9;&#9;c-11.713-10.864-38.453-13.409-58.217-6.756c0.289-8.862,1.165-17.961,2.669-27.234c0.016-0.104,0.03-0.207,0.041-0.311&#10;&#9;&#9;c0.762-7.036,5.274-27.442,15.674-28.861c3.501-0.473,6.149,1.808,7.839,6.803c2.542,7.517,0.659,15.135-0.917,16.032&#10;&#9;&#9;c-0.629,0.278-1.096,0.426-1.423,0.506c-0.058-0.246-0.101-0.519-0.111-0.739c-0.053-3.214-2.674-5.799-5.919-5.799&#10;&#9;&#9;c-3.254,0.013-5.884,2.662-5.873,5.919c0.002,0.75,0.177,7.426,5.377,10.799c2.393,1.552,6.543,2.83,12.715,0.1&#10;&#9;&#9;c8.915-3.942,10.971-17.846,7.809-29.012c-3.222-11.384-11.287-17.622-21.093-16.291c-20.985,2.86-25.289,34.711-25.784,39.116&#10;&#9;&#9;c-0.332,2.055-0.632,4.103-0.907,6.143c-7.334-2.644-16.303-5.387-25.301-6.899c-9.781-1.644-20.117-1.2-28.352,1.222&#10;&#9;&#9;c-7.344,2.159-13.021,7.525-14.465,13.669c-1.239,5.276,0.564,10.487,5.078,14.671c8.157,7.558,21.505,10.239,28.737,11.164&#10;&#9;&#9;c2.483,0.318,4.984,0.474,7.489,0.474c8.506-0.001,17.026-1.839,24.82-5.259c0,0.783-0.016,1.573-0.007,2.353&#10;&#9;&#9;c-0.033,0.403-0.023,0.811,0.028,1.217c0.066,3.708,0.223,7.375,0.499,10.989c0.14,1.838,0.355,3.656,0.555,5.478&#10;&#9;&#9;c0.006,0.273,0.038,0.538,0.081,0.804c0.514,4.501,1.215,8.941,2.078,13.322c-9.367-0.061-19.149,0.31-28.952,2.015&#10;&#9;&#9;c-5.044,0.88-9.958,2.068-14.168,3.114c-3.56,0.884-8.733,2.526-12.521,6.547c-6.278,6.661-7.865,14.675-4.249,21.437&#10;&#9;&#9;c4.058,7.589,13.592,11.898,25.42,11.898c2.867,0,5.87-0.253,8.963-0.775c12.534-2.113,24.582-7.876,33.782-15.917&#10;&#9;&#9;c1.826,4.594,3.855,9.059,6.078,13.372c-17.108,1.895-46.189,9.913-55.87,23.146c-5.131,7.013-5.025,14.976,0.297,22.426&#10;&#9;&#9;c2.84,3.973,8.339,8.678,18.468,8.678c0.115,0,0.23-0.001,0.345-0.002c18.838-0.197,44.24-16.565,55.543-26.602&#10;&#9;&#9;c3.354,3.81,6.907,7.375,10.644,10.681c-8.458,1.561-20.407,5.255-24.932,16.121c-2.128,5.108-1.932,10.346-1.762,14.967&#10;&#9;&#9;c0.115,3.118,0.226,6.063-0.366,8.572c-0.485,2.059-1.493,4.008-2.781,5.927c-9.438-2.689-33.049-7.578-58.547,1.325&#10;&#9;&#9;c-29.619,10.343-38.911,12.404-38.987,12.42c-1.573,0.333-2.939,1.292-3.786,2.655s-1.103,3.015-0.707,4.57&#10;&#9;&#9;c0.921,3.605,8.618,32.625,21.24,46.358L60.196,554.36c-1.497,2.043-1.522,4.811-0.064,6.879&#10;&#9;&#9;c0.861,1.224,18.99,26.459,48.648,30.996c-5.889,7.228-10.502,15.336-13.238,24.644c-2.103,7.15-2.86,14.43-3.593,21.471&#10;&#9;&#9;c-0.292,2.81-0.585,5.619-0.965,8.41c-2.305,16.958-8.102,33.726-16.761,48.492c-0.022,0.038-0.029,0.081-0.051,0.119&#10;&#9;&#9;c-0.223,0.401-0.41,0.82-0.535,1.263c-0.012,0.043-0.014,0.086-0.024,0.13c-2.728,11.791,29.118,8.119,35.46,7.906&#10;&#9;&#9;c-3.846,18.843-4.765,39.001-5.118,56.643c-0.269,13.47,0.421,29.114,7.591,43.003c6.059,11.742,16.033,20.654,24.833,28.518&#10;&#9;&#9;c0.371,0.332,0.783,0.615,1.225,0.843l2.91,1.502c-0.008,3.706,0.228,7.381,0.777,10.993c1.366,8.99,4.697,17.479,9.413,24.945&#10;&#9;&#9;c0.219,0.481,0.495,0.935,0.844,1.349c8.873,13.327,22.318,23.093,37.299,25.854l14.953,2.152c0.104,0.015,0.21,0.026,0.313,0.037&#10;&#9;&#9;c7.798,0.7,15.605,1.219,23.416,1.595c5.99,12.574,28.04,57.353,45.467,73.006c32.18,28.905,77.184,34.971,116.964,37.092&#10;&#9;&#9;c14.101,0.752,28.329,1.128,42.534,1.128c2.552,0,5.1-0.04,7.649-0.064c0.166,0.018,0.325,0.059,0.494,0.064&#10;&#9;&#9;c38.789,1.157,51.036,23.272,60.877,41.04c4.926,8.895,9.182,16.577,16.247,19.498c3.607,1.49,7.844,2.217,12.413,2.217&#10;&#9;&#9;c8.473,0,18.085-2.496,26.92-7.243c17.113-9.196,28.64-25.024,32.458-44.572c6.902-35.358,49.234-129.955,56.452-145.934&#10;&#9;&#9;c5.541,1.277,11.067,2.602,16.488,3.908c23.251,5.605,47.294,11.4,71.793,12.767c39.487,2.197,79.191-7.45,113.394-26.981&#10;&#9;&#9;c1.247-0.257,2.387-0.932,3.261-1.953c10.345-6.165,20.187-13.202,29.305-21.148c0.52-0.454,0.958-0.996,1.29-1.601l0.728-1.32&#10;&#9;&#9;c12.726,0.679,25.681-4.102,36.141-13.476c11.607-10.401,17.94-24.484,17.376-38.639c-0.048-1.195-0.138-2.396-0.233-3.598&#10;&#9;&#9;c-0.357-4.659-0.197-8.473,2.466-12.542c3.502-5.35,7.808-9.684,10.208-15.737c1.841,0.086,3.672,0.138,5.494,0.138&#10;&#9;&#9;c41.668,0,77.983-22.125,113.185-43.573c0,0,4.062-2.475,4.065-2.477c10.255-6.249,21.328-13.048,28.548-22.815&#10;&#9;&#9;c9.669-13.081,12.286-25.142,25.538-35.511C1143.641,639.233,1153.266,613.867,1148.998,590.653z M246.859,250.758&#10;&#9;&#9;c2.068-1.004,3.878-1.511,5.384-1.511c0.143,0,0.281,0.005,0.417,0.014c2.662,0.175,5.566,2.202,7.768,5.418&#10;&#9;&#9;c0.873,1.272,1.336,2.29,1.382,3.03c0.012,0.183-0.005,0.382-0.048,0.592c-0.002,0.007-0.002,0.012-0.005,0.018&#10;&#9;&#9;c-0.175,0.843-0.751,1.833-1.58,2.715c-1.921,2.044-4.742,3.27-7.547,3.279c-0.007,0-0.014,0-0.021,0&#10;&#9;&#9;c-3.183,0-7.344-2.342-9.288-5.231c-1.681-2.499-0.979-4.209-0.746-4.773C243.066,253.109,244.549,251.88,246.859,250.758z&#10;&#9;&#9; M251.156,275.998c3.758,0.303,7.554-0.459,10.965-2.067c0.783-0.369,1.706-0.785,2.468-0.374c0.598,0.323,0.846,1.037,1.041,1.688&#10;&#9;&#9;c1.61,5.373,3.021,11.065,1.798,16.539c-0.81,3.627-3.24,7.305-6.909,7.898c-2.151,0.347-4.36-0.443-6.147-1.69&#10;&#9;&#9;c-3.207-2.236-5.273-5.935-5.807-9.808C247.994,284.056,249.383,279.803,251.156,275.998 M295.889,256.64&#10;&#9;&#9;c4.35,2.128,7.086,7.455,6.23,12.13c-0.852,4.647-5.318,8.572-9.956,8.747c-5.603,0.227-10.916-3.788-17.235-9.858&#10;&#9;&#9;c-1.56-1.498-2.457-13.949-0.401-13.614c3.15,0.514,6.241,0.607,9.233,0.698C288.283,254.881,292.555,255.01,295.889,256.64z&#10;&#9;&#9; M260.366,224.233c2.149-2.899,5.126-4.897,8.171-5.48c0.256-0.05,0.514-0.089,0.767-0.116c3.054-0.339,6.575,0.744,9.7,2.971&#10;&#9;&#9;c1.845,1.31,3.081,2.669,3.68,4.039c1.018,2.335,0.426,5.795-1.511,8.814c-2.215,3.451-5.854,6.35-9.373,9.154&#10;&#9;&#9;c-1.199,0.956-3.264,2.27-3.881,1.573c-3.368-3.805-7.412-6.058-12.236-7.444C256.921,233.014,257.307,228.293,260.366,224.233z&#10;&#9;&#9; M228.352,226.303c2.433-2.072,6.177-2.59,8.892-1.232c3.635,1.819,10.75,12.49,5.238,14.79c-2.831,1.182-5.489,2.875-7.618,5.113&#10;&#9;&#9;c-0.238,0.251-2.065-0.818-3.064-1.288c-3.316-1.563-5.877-4.769-6.529-8.169C224.624,232.126,225.863,228.422,228.352,226.303z&#10;&#9;&#9; M214.161,272.745c-3.059-2.761-4.386-7.317-2.769-11.486c1.282-3.305,4.451-5.645,7.882-6.538c2.852-0.742,5.92-0.669,8.774,0.021&#10;&#9;&#9;c3.305,0.8,2.178,2.618,2.982,5.49c0.67,2.392,1.945,4.548,3.483,6.48c0.414,0.52,4.65,5.373,5.064,5.085&#10;&#9;&#9;c-3.829,2.661-8.923,2.997-13.418,3.372c-2.328,0.194-4.684,0.387-6.988,0.003C217.229,274.847,215.523,273.974,214.161,272.745z&#10;&#9;&#9; M194.798,375.715c-1.679-0.789-2.586-1.772-3.033-3.29c-0.463-1.575-0.286-2.714,0.615-3.932&#10;&#9;&#9;c5.654-7.64,31.52-11.569,50.03-12.172c2.143,3.361,4.465,6.656,6.935,9.868C230.987,373.218,204.839,380.42,194.798,375.715z&#10;&#9;&#9; M790.093,232.434c3.899-2.981,8.1-5.801,12.422-6.256c3.374-0.354,6.863,1.369,7.517,3.679c0.808,2.863-1.997,6.68-4.647,9.081&#10;&#9;&#9;c-5.186,4.699-17.157,10.968-23.706,12.512c-2.224-0.366-4.437-0.721-6.62-1.063c-0.093-0.015-0.182-0.025-0.275-0.039&#10;&#9;&#9;C778.27,243.884,784.662,236.588,790.093,232.434z M736.551,203.637c1.124-5.329,3.012-9.208,5.615-11.53&#10;&#9;&#9;c1.626-1.45,3.791-2.25,5.688-2.25c1.006,0,1.939,0.226,2.674,0.699c1.345,0.865,2.524,2.662,3.505,5.341&#10;&#9;&#9;c6.863,18.776-5.156,42.071-12.054,53.153C735.102,237.43,733.697,217.206,736.551,203.637z M683.511,305.192&#10;&#9;&#9;c-4.373,0.877-9.983-0.436-14.949-3.643c-5.235-3.376-8.634-8.118-9.025-12.517c8.985-0.866,19.755,5.163,24.924,13.721&#10;&#9;&#9;C684.144,303.566,683.822,304.376,683.511,305.192z M686.608,214.054c0.292-0.256,0.451-0.319,0.587-0.319&#10;&#9;&#9;c0.058,0,0.113,0.012,0.173,0.024c0.753,0.157,2.133,1.396,2.651,1.861c12.803,11.51,21.794,28.882,23.481,45.027&#10;&#9;&#9;c-0.823,0.634-1.61,1.343-2.412,2.022c-15.934-12.309-25.933-27.26-26.987-40.63C683.847,218.809,685.192,215.302,686.608,214.054z&#10;&#9;&#9; M684.975,253.209c5.738,7.52,12.372,13.578,17.709,17.834c-4.752,5.546-9.012,12.043-12.765,19.458&#10;&#9;&#9;c-8.423-9.198-21.145-14.638-32.625-13.079c-1.239,0.168-4.528,0.615-6.934,3.19c-2.759,2.945-2.674,6.775-2.646,8.035&#10;&#9;&#9;c0.187,8.561,5.589,17.088,14.456,22.809c5.216,3.367,10.953,5.299,16.44,5.701c-1.117,2.389-2.311,4.702-3.73,6.857&#10;&#9;&#9;c-5.2,7.899-13.371,14.616-25.71,21.137c-6.49,3.43-15.096,7.967-23.551,10.081c5.537-7.136,9.982-16.12,13.057-26.61&#10;&#9;&#9;c7.259-24.775,6.288-51.913-2.229-76.321C652.304,248.119,669.276,248.414,684.975,253.209z M481.715,571.204&#10;&#9;&#9;c0.088,1.439,0.193,2.883,0.304,4.328c0.424,5.672,0.827,11.03-0.191,16.009c-0.953,4.665-3.254,9.521-7.238,15.278&#10;&#9;&#9;c-12.588,18.185-31.341,29.987-50.472,32.317c5.801-13.02,6.863-28.912,3.034-45.735c10.776-5.167,18.142-14.296,22.577-21.461&#10;&#9;&#9;c5.453-8.814,8.219-17.396,8.219-25.503c0.005-9.535-3.643-17.937-7.171-26.063c-1.658-3.817-3.222-7.422-4.399-11.083&#10;&#9;&#9;c-1.81-5.637-2.807-11.695-3.864-18.108c-1.37-8.319-2.774-16.816-6.082-24.546l0.071-0.128c0.302-0.548,0.518-1.14,0.636-1.755&#10;&#9;&#9;c0.041-0.219,0.085-0.453,0.128-0.675c9.272,1.801,29.73,8.779,35.248,17.389c6.612,10.321,9.894,24.123,10.032,42.192&#10;&#9;&#9;c0.048,6.4-0.251,12.987-0.541,19.358C481.588,552.209,481.155,561.714,481.715,571.204z M185.282,557.858&#10;&#9;&#9;c-0.486-4.403-1.444-8.704-2.372-12.864c-1.707-7.65-3.319-14.877-1.757-21.542c1.048-4.472,4.898-8.721,10.566-11.658&#10;&#9;&#9;c5.662-2.934,12.33-4.129,17.936-3.414c-0.283,1.795-0.459,3.628-0.491,5.503c-0.228,13.843,7.036,26.1,12.874,35.947&#10;&#9;&#9;c1.978,3.338,3.372,8.182,4.848,13.309c2.762,9.605,6.045,20.897,14.838,28.512c-2.237,10.335-3.36,21.096-0.94,32.171&#10;&#9;&#9;c-3.585,0.221-7.252,0.494-10.861,0.769c-6.064,0.463-12.335,0.94-17.837,1.11c-4.776,0.148-9.732,0.299-13.816-1.172&#10;&#9;&#9;c-10.204-3.678-14.154-16.759-14.435-26.845c-0.15-5.373,0.355-10.764,0.889-16.472&#10;&#9;&#9;C185.432,573.645,186.164,565.822,185.282,557.858z M309.341,396.447c0.014-0.008,0.029-0.015,0.043-0.022&#10;&#9;&#9;c0.007-0.003,0.013-0.007,0.02-0.01c10.804-5.604,21.952-10.187,30.379-5.916c3.517,1.783,6.435,5.11,9.525,8.633&#10;&#9;&#9;c2.782,3.175,5.663,6.459,9.364,9.146c9.166,6.656,19.967,7.462,30.411,8.241c7.188,0.535,13.977,1.042,19.895,3.384&#10;&#9;&#9;c9.765,3.862,17.113,13.469,18.288,23.905c0.334,2.97,0.207,6.06-0.137,9.127c-13.491-13.056-33.666-13.635-53.936-11.765&#10;&#9;&#9;c-4.25-9.837-10.682-18.371-18.902-24.429c-7.291-5.376-15.616-8.754-23.525-11.604c-7.257-2.615-15.729-5.312-24.589-4.262&#10;&#9;&#9;C301.786,401.401,309.341,396.447,309.341,396.447z M329.458,376.158c-3.666-7.583-3.505-16.896,0.433-24.346&#10;&#9;&#9;c0.815-1.546,1.361-2.105,1.674-2.3c1.607-1.001,6.218,1.534,8.975,3.047l0.355,0.193c24.469,13.41,60.748,12.549,82.463,4.932&#10;&#9;&#9;c16.959-5.954,51.082-1.565,76.618,15.906c5.419,3.705,18.092,12.379,28.73,5.151c4.675-3.177,6.658-8.172,8.252-12.187&#10;&#9;&#9;c1.092-2.752,2.123-5.352,3.669-6.683c1.234-1.063,3.21-1.712,5.497-2.465c1.276-0.419,2.549-0.844,3.779-1.345&#10;&#9;&#9;c8.703-3.55,15.342-11.239,18.388-20.342c0.86,5.497,0.272,11.462-0.312,17.252c-0.349,3.45-0.709,6.968-1.552,10.183&#10;&#9;&#9;c-0.016,0.054-0.025,0.109-0.04,0.165c-0.52,1.943-1.223,3.77-2.214,5.398c-2.043,3.355-5.723,6.789-9.62,10.422&#10;&#9;&#9;c-5.536,5.163-11.211,10.487-13.991,17.124c-0.093,0.026-0.189,0.052-0.281,0.078c-1.801,0.519-3.602,1.039-5.41,1.506&#10;&#9;&#9;c-17.592,4.545-35.756,4.104-54.986,3.636c-5.656-0.137-11.418-0.29-17.268-0.276c-7.441,0.002-16.043,0.269-23.967,3.442&#10;&#9;&#9;c-5.983,2.395-10.909,6.359-14.125,11.123c-3.345-2.868-7.121-5.215-11.207-6.832c-7.591-3.003-15.605-3.6-23.357-4.179&#10;&#9;&#9;c-9.207-0.686-17.906-1.335-24.361-6.023c-2.632-1.913-4.963-4.568-7.427-7.379c-3.692-4.21-7.508-8.563-13.056-11.377&#10;&#9;&#9;c-4.913-2.49-9.996-3.269-15.143-2.905L329.458,376.158z M372.664,303.08c1.923,0.812,3.893,1.472,5.73,2.067&#10;&#9;&#9;c1.939,0.628,3.77,1.221,5.069,1.855c14.916,7.298,28.784,22.35,36.648,39.36c-0.212,0.07-0.449,0.123-0.658,0.196&#10;&#9;&#9;c-9.74,3.418-22.709,5.212-35.83,4.76C372.085,334.67,371.633,314.728,372.664,303.08z M461.428,266.813&#10;&#9;&#9;c4.921-1.01,10.354-0.052,16.102,0.963l1.861,0.325c0.381,0.067,0.766,0.127,1.149,0.189c0.033,0.006,0.066,0.012,0.099,0.017&#10;&#9;&#9;c5.202,0.847,10.594,1.376,15.851,0.54l5.985,19.095c2.078,6.634,3.887,13.096,3.915,18.955c-0.637-1.073-1.31-2.112-1.992-3.121&#10;&#9;&#9;c-7.768-11.499-20.959-25.844-39.69-28.893c-4.553-0.742-8.594-0.289-11.764,1.135c-0.648-1.386-1.192-2.8-1.618-4.24&#10;&#9;&#9;C452.079,269.804,455.733,267.98,461.428,266.813z M541.774,299.73c9.138,4.639,15.603,13.604,16.469,22.839&#10;&#9;&#9;c0.894,9.529-4.608,19.233-12.795,22.573c-0.979,0.4-1.994,0.729-3.01,1.063c-3.045,1.002-6.494,2.136-9.507,4.731&#10;&#9;&#9;c-3.742,3.222-5.437,7.496-6.934,11.268c-1.202,3.028-2.241,5.642-3.92,6.785c-2.709,1.846-7.382-0.137-11.629-2.671&#10;&#9;&#9;c7.052-6.073,11-15.37,12.612-19.188c3.197-7.568,5.592-15.501,7.121-23.585c0.5-2.651-0.578-5.255-2.812-6.798&#10;&#9;&#9;c-1.612-1.115-3.711-1.535-5.792-1.29c-1.085-1.307-2.417-2.217-3.818-2.812c0.858-5.544,0.28-11.14-0.785-16.298&#10;&#9;&#9;C525.834,294.968,534.642,296.109,541.774,299.73z M498.702,323.705c-1.427,0.436-2.858,0.895-4.275,1.396&#10;&#9;&#9;c-0.245,0.086-0.509,0.197-0.76,0.291c-5.292-10.871-15.327-20.464-23.665-28.416l-2.582-2.47c-2.56-2.462-5.231-5.185-7.682-8.125&#10;&#9;&#9;c0.9-0.063,1.975-0.039,3.078,0.14c15.345,2.496,26.519,16.017,31.813,23.855c1.826,2.701,3.56,5.584,3.89,8.358&#10;&#9;&#9;C498.633,319.712,498.949,322.444,498.702,323.705z M493.034,338.578c0.096-0.046,0.19-0.092,0.283-0.143&#10;&#9;&#9;c1.664-0.869,3.365-1.626,5.039-2.218c2.432-0.859,4.954-1.594,7.621-2.372c3.475-1.016,7.019-2.05,10.472-3.402&#10;&#9;&#9;c-1.168,4.118-2.589,8.164-4.249,12.098c-3.96,9.374-8.202,15.047-12.636,16.92c-6.346-3.654-12.989-6.643-19.7-9.012&#10;&#9;&#9;C481.868,346.226,487.196,341.682,493.034,338.578z M440.097,275.366c1.482,4.828,3.904,9.281,6.704,13.349&#10;&#9;&#9;c0.146,0.245,0.307,0.477,0.488,0.699c3.738,5.282,8.095,9.875,11.955,13.589l2.618,2.506c7.698,7.34,17.016,16.236,21.319,25.254&#10;&#9;&#9;c-6.234,4.081-12.13,9.706-14.658,16.274c-13.158-3.291-25.981-4.265-36.586-3.127c-4.408-10.276-10.821-20.012-18.389-28.284&#10;&#9;&#9;c1.158-10.644,3.027-16,10.127-25.189c2.766-3.58,6.52-6.739,10.152-9.795L440.097,275.366z M418.961,584.055&#10;&#9;&#9;c-7.864,2.73-16.493,1.274-21.827-3.427c0.1-0.182,0.21-0.373,0.303-0.546c5.437-10.153,7.45-22.011,5.663-33.392&#10;&#9;&#9;c-1.312-8.347-5.692-16.728-12.33-21.305c4.726-4.916,9.2-10.894,10.939-17.531c2.913-11.135-0.474-23-8.431-29.525&#10;&#9;&#9;c-4.334-3.555-9.407-5.23-14.351-6.342c0.228-6.598-0.448-13.107-1.926-19.321c15.98-1.333,32.745-0.984,42.718,9.477&#10;&#9;&#9;c7.328,7.685,9.189,18.988,11.16,30.957c1.08,6.554,2.197,13.332,4.274,19.796c1.352,4.217,3.109,8.262,4.806,12.175&#10;&#9;&#9;c3.19,7.343,6.2,14.278,6.197,21.365c0,5.885-2.172,12.38-6.455,19.3C435.701,572.199,428.857,580.623,418.961,584.055z&#10;&#9;&#9; M370.762,482.392c0.409,0.142,0.834,0.25,1.283,0.299c0.161,0.018,0.321,0.022,0.481,0.026c5.138,0.951,9.928,1.982,13.277,4.728&#10;&#9;&#9;c4.392,3.601,6.241,10.765,4.498,17.421c-1.08,4.125-4.125,8.219-7.535,11.833c-1.712-6.691-5.771-13.224-12.337-19.882&#10;&#9;&#9;c-8.942-9.074-18.272-12.899-26.991-11.046c-1.061,0.225-2.092,0.65-3.108,1.154c-4.625,2.294-11.495-1.404-15.629-3.313&#10;&#9;&#9;c-1.581-0.73-14.519-8.559-15.841-7.405c4.954-4.32,11.276-7.586,17.732-8.88c10.292-2.064,16.708,1.992,24.823,7.699&#10;&#9;&#9;C357.39,479.23,363.669,481.092,370.762,482.392z M323.426,510.687c4.325,1.492,7.888,5.435,9.076,10.046&#10;&#9;&#9;c1.508,5.84-7.441,9.327-8.468,9.707c-0.788,0.29-1.587,0.534-2.379,0.728c-0.002,0-0.002,0-0.002,0&#10;&#9;&#9;c-3.553,0.859-10.002,1.45-13.244-4.279c-2.367-4.185-1.32-10.331,2.34-13.7c2.245-2.068,5.373-3.186,8.521-3.186&#10;&#9;&#9;C320.676,510.001,322.088,510.225,323.426,510.687z M315.534,543.376c0.636,0.047,1.263,0.112,1.914,0.112&#10;&#9;&#9;c2.25,0,4.59-0.283,6.98-0.861c1.237-0.299,2.478-0.679,3.689-1.126c12.16-4.489,18.362-13.797,15.803-23.714&#10;&#9;&#9;c-1.184-4.59-3.629-8.714-6.884-12.003c1.964-2.31,5.578-6.491,7.832-7.971c0.154-0.083,0.318-0.152,0.463-0.246&#10;&#9;&#9;c0.189-0.098,0.393-0.221,0.55-0.26c6.096-1.299,12.733,4.324,16.148,7.789c5.711,5.792,8.876,11.123,9.675,16.303&#10;&#9;&#9;c1.2,7.759-3.15,16.841-11.087,23.133c-7.927,6.287-18.138,9.663-28.013,12.929c-2.579,0.852-5.202,1.732-7.496,1.652&#10;&#9;&#9;c-3.309-0.121-6.676-2.527-8.378-5.988C315.382,550.378,314.985,546.932,315.534,543.376z M293.637,486.28&#10;&#9;&#9;c5.304-1.725,11.556,0.976,18.177,3.84c2.259,0.978,4.597,1.987,6.962,2.848c1.935,0.702,3.669,1.464,5.348,2.199&#10;&#9;&#9;c1.559,0.684,3.144,1.362,4.801,1.959c-0.426,0.497-0.852,0.996-1.268,1.485c-0.242,0.286-0.479,0.564-0.714,0.841&#10;&#9;&#9;c-8.37-2.754-17.823-0.796-24.181,5.063c-7.708,7.098-9.691,19.213-4.615,28.182c1.475,2.606,3.39,4.774,5.645,6.467&#10;&#9;&#9;c-8.032,4.617-17.505,8.655-24.764,5.11c-6.635-3.238-9.23-12.252-8.362-19.481c1.059-8.832,5.923-17.103,10.628-25.102&#10;&#9;&#9;C284.89,493.571,288.541,487.94,293.637,486.28z M299.471,554.399c1.581-0.624,3.125-1.333,4.647-2.075&#10;&#9;&#9;c0.446,2.095,1.104,4.115,2.034,6.004c3.616,7.353,10.888,12.286,18.525,12.567c0.244,0.009,0.484,0.014,0.725,0.014&#10;&#9;&#9;c4.088,0,7.851-1.244,10.907-2.255c10.345-3.42,22.072-7.298,31.638-14.884c6.878-5.456,11.738-12.404,14.107-19.709&#10;&#9;&#9;c4.764,1.67,8.405,8.143,9.397,14.458c1.391,8.86-0.175,18.09-4.41,25.994c-1.366,2.552-2.609,4.09-3.913,4.837&#10;&#9;&#9;c-1.683,0.968-4.196,1.063-7.105,1.173c-2.685,0.101-5.728,0.216-8.779,1.103c-5.004,1.453-8.827,4.597-12.199,7.368&#10;&#9;&#9;c-0.953,0.783-1.902,1.567-2.874,2.299c-12.27,9.252-30.51,9.783-42.432,1.241C298.469,584.458,293.978,567.13,299.471,554.399z&#10;&#9;&#9; M284.86,425.454c7.439-6.111,14.465-11.885,22.717-12.87c6.294-0.753,12.931,1.389,19.191,3.646&#10;&#9;&#9;c7.07,2.547,14.451,5.523,20.526,10.002c12.525,9.233,19.956,25.776,19.891,43.379c-2.379-0.587-4.605-1.314-6.545-2.4&#10;&#9;&#9;c-1.688-0.947-3.344-2.258-5.096-3.648c-1.276-1.009-2.593-2.053-4.03-3.046c-7.397-5.105-17.07-6.793-27.244-4.75&#10;&#9;&#9;c-8.924,1.791-17.461,6.306-24.081,12.39c-11.234-8.186-23.849-13.063-34.576-13.219c-0.175-0.002-0.345-0.005-0.518-0.005&#10;&#9;&#9;c-7.262,0-14.407,2.248-21.558,6.809c0.136-5.077,2.149-10.124,5.769-13.703c3.404-3.365,8.083-5.579,13.037-7.921&#10;&#9;&#9;c2.819-1.336,5.737-2.715,8.562-4.377C275.95,432.774,280.48,429.053,284.86,425.454z M235.662,484.375&#10;&#9;&#9;c10.605-12.01,20.425-17.814,29.775-17.648c8.143,0.12,16.926,3.907,24.147,8.491c-9.511,3.306-14.886,12.425-18.456,18.495&#10;&#9;&#9;c-5.069,8.622-10.815,18.394-12.171,29.674c-1.32,11.015,2.777,25.565,14.898,31.482c3.722,1.817,7.538,2.575,11.347,2.574&#10;&#9;&#9;c0.347,0,0.692-0.051,1.039-0.063c-2.135,10.368-0.313,21.662,4.767,31.031c-8.506,1.926-17.838,3.339-33.419-1.309&#10;&#9;&#9;c-12.623-3.763-15.902-15.158-19.373-27.222c-1.69-5.874-3.286-11.423-6.036-16.06c-6.458-10.899-11.386-20.008-11.225-29.741&#10;&#9;&#9;C221.105,505.012,225.778,495.572,235.662,484.375z M262.531,641.914c-10.396-12.971-13.342-25.427-9.988-44.096&#10;&#9;&#9;c0.557,0.195,1.089,0.41,1.674,0.585c8.977,2.676,16.363,3.602,22.657,3.602c7.878,0,14.044-1.45,19.472-2.726&#10;&#9;&#9;c0.841-0.198,1.664-0.39,2.481-0.575c1.276,1.219,2.605,2.385,4.045,3.417c7.763,5.563,17.252,8.324,26.844,8.324&#10;&#9;&#9;c10.426,0,20.973-3.263,29.556-9.735c1.103-0.833,2.183-1.718,3.263-2.606c2.736-2.251,5.322-4.376,7.998-5.154&#10;&#9;&#9;c1.66-0.482,3.738-0.561,5.935-0.644c3.904-0.147,8.325-0.314,12.533-2.73c0.082-0.047,0.152-0.104,0.233-0.151&#10;&#9;&#9;c5.699,5.021,13.571,7.759,21.722,7.759c1.621,0,3.252-0.136,4.88-0.356c2.361,10.946,3.668,27.4-4.507,41.508&#10;&#9;&#9;c-3.507,6.053-8.793,11.759-16.632,17.956c-5.29,4.182-12.353,9.116-20.091,10.149c-4.277,0.571-8.82-0.012-13.624-0.626&#10;&#9;&#9;c-2.688-0.343-5.465-0.7-8.305-0.864c-7.199-0.419-14.244,0.431-21.052,1.251c-5.071,0.611-9.861,1.188-14.661,1.271&#10;&#9;&#9;C296.244,667.828,275.453,658.031,262.531,641.914z M480.549,472.583c-9.044-10.657-29.556-17.96-41.545-20.068&#10;&#9;&#9;c0.287-3.264,0.358-6.642-0.022-10.024c-0.685-6.09-2.886-11.967-6.188-17.158c1.378-4.018,5.221-7.732,10.234-9.738&#10;&#9;&#9;c5.981-2.394,12.959-2.595,19.591-2.598c0.03,0,0.062,0,0.094,0c5.587,0,11.328,0.138,16.883,0.274&#10;&#9;&#9;c19.184,0.467,39.033,0.948,58.219-4.009c1.914-0.494,3.821-1.042,5.725-1.591c5.154-1.485,10.02-2.887,14.861-3.121&#10;&#9;&#9;c4.433-0.211,10.46,0.93,13.654,4.735c-13.15,7.262-23.359,18.171-33.241,28.727c-3.296,3.52-6.702,7.16-10.119,10.548&#10;&#9;&#9;C516.838,460.312,497.459,473.244,480.549,472.583z M536.998,456.934c3.574-3.543,7.059-7.265,10.428-10.864&#10;&#9;&#9;c7.054-7.538,13.845-14.749,21.478-20.59c0.37,0.141,0.759,0.245,1.165,0.31c2.29,0.364,4.574,0.955,6.847,1.675&#10;&#9;&#9;c2.206,10.308,0.344,21.534-5.228,30.475c-1.72,2.764-0.877,6.4,1.886,8.121c0.97,0.606,2.047,0.894,3.114,0.894&#10;&#9;&#9;c1.967,0,3.89-0.986,5.009-2.779c5.837-9.367,8.547-20.692,7.823-31.736c24.392,10.591,54.681,23.781,71.441,47.923&#10;&#9;&#9;c1.145,1.651,2.982,2.536,4.848,2.536c1.161,0,2.333-0.342,3.358-1.054c2.674-1.857,3.337-5.531,1.481-8.204&#10;&#9;&#9;c-12.856-18.523-32.037-30.898-51.147-40.461c17.697-5.244,31.525-19.614,44.17-34.451c19.473,17.596,32.23,42.05,35.306,68.197&#10;&#9;&#9;c2.128,18.067-0.267,36.415-3.583,54.454c-10.366-10.808-27.097-15.946-41.827-19.271l-66.971-15.12&#10;&#9;&#9;c-2.416-0.542-4.917,0.479-6.257,2.562c-0.454,0.705-0.742,1.481-0.866,2.274c-19.471-2.943-37.799-12.626-51.17-27.114&#10;&#9;&#9;C531.431,462.179,534.353,459.556,536.998,456.934z M609.82,423.195c-2.06,0.251-3.733,1.54-4.581,3.274&#10;&#9;&#9;c-3.813-1.708-7.562-3.342-11.181-4.913c-3.894-1.692-7.869-3.404-12.015-4.817c0.596-0.584,1.17-1.242,1.633-2.096&#10;&#9;&#9;c1.725-3.164,1.368-7.082-0.974-10.743c-4.71-7.374-14.232-11.63-24.865-11.128c-0.168,0.008-0.327,0.039-0.495,0.049&#10;&#9;&#9;c1.655-1.698,3.458-3.39,5.251-5.061c4.309-4.018,8.763-8.172,11.648-12.913c0.89-1.461,1.601-2.984,2.207-4.527&#10;&#9;&#9;c26.458-2.243,56.795,5.935,78.041,21.002C641.046,407.088,627.378,421.059,609.82,423.195z M615.322,235.049&#10;&#9;&#9;c2.761,4.501,5.154,9.22,7.23,14.078c0.044,0.455,0.124,0.911,0.28,1.362c0.234,0.679,0.588,1.279,1.018,1.806&#10;&#9;&#9;c9.04,23.084,10.474,49.243,3.507,73.011c-2.895,9.88-9.962,27.247-24.838,34.051c-7.844-1.063-15.676-1.412-23.272-1.035&#10;&#9;&#9;c0.177-1.437,0.327-2.842,0.461-4.166c0.707-7.001,1.508-14.935-0.223-22.752c-0.322-1.457-0.836-3.453-1.586-5.675&#10;&#9;&#9;c14.929-2.792,28.765-7.434,41.204-13.867c2.893-1.495,4.023-5.053,2.529-7.945c-1.495-2.891-5.05-4.023-7.945-2.529&#10;&#9;&#9;c-12.346,6.386-26.257,10.848-41.367,13.338c-1.544-2.039-3.382-3.849-5.551-5.212c-2.533-5.589-6.409-10.654-11.292-14.754&#10;&#9;&#9;c3.78-6.102,6.788-12.615,9.001-19.4c0.068-0.164,0.107-0.339,0.16-0.51c1.734-5.425,2.964-11.011,3.64-16.7&#10;&#9;&#9;c6.675-1.419,19.216-5.217,31.851-15.12c2.563-2.008,3.012-5.715,1.004-8.277c-2.006-2.562-5.714-3.012-8.277-1.004&#10;&#9;&#9;c-8.063,6.318-16.125,9.717-21.934,11.518c4.293-14.532,12.642-35.939,18.303-49.956c4.254,8.775,10.004,16.746,15.65,24.536&#10;&#9;&#9;C608.464,224.797,612.174,229.917,615.322,235.049z M513.509,234.139c0.636,1.356,1.05,2.818,1.211,4.308&#10;&#9;&#9;c0.286,2.674,2.347,4.816,5.007,5.205c2.669,0.39,5.248-1.071,6.289-3.549c9.005-21.417,28.959-35.675,51.929-48.372&#10;&#9;&#9;c-7.161,17.757-18.225,46.418-20.871,60.24c-0.02,0.102-0.008,0.205-0.023,0.307c-0.018,0.139-0.06,0.272-0.069,0.415&#10;&#9;&#9;c-0.319,4.834-1.115,9.599-2.311,14.253c-8.84-1.242-16.332-6.905-22.335-16.899c-1.677-2.791-5.304-3.692-8.088-2.017&#10;&#9;&#9;c-2.791,1.678-3.696,5.299-2.017,8.09c7.403,12.323,17.185,19.844,28.604,22.132c-1.517,3.536-3.317,6.953-5.352,10.242&#10;&#9;&#9;c-9.359-4.289-20.533-5.567-31.607-3.605c-0.048-0.153-0.1-0.324-0.147-0.474l-7.676-24.49c-0.493-1.574-1.624-2.87-3.116-3.572&#10;&#9;&#9;c-1.488-0.7-3.206-0.746-4.737-0.124c-2.387,0.974-5.068,1.282-7.812,1.246C495.134,247.433,503.509,238.958,513.509,234.139z&#10;&#9;&#9; M431.295,245.36c5.7,0.634,15.179,6.644,21.465,11.648c-1.894,0.679-3.556,1.431-4.969,2.25c-0.258-0.182-0.492-0.392-0.781-0.533&#10;&#9;&#9;c-2.089-1.021-4.597-0.719-6.384,0.786l-14.391,12.108c-4.106,3.456-8.353,7.028-11.893,11.607&#10;&#9;&#9;c-6.557,8.486-9.55,14.829-11.203,22.559c-4.637-3.749-9.511-6.937-14.496-9.375c-2.05-1.003-4.371-1.755-6.616-2.481&#10;&#9;&#9;c-1.964-0.636-5.167-1.675-6.897-2.737c0.496-0.754,1.099-1.528,1.665-2.255l19.658-25.235c2.916-3.739,5.67-7.272,8.913-10.139&#10;&#9;&#9;C412.344,247.396,422.031,244.329,431.295,245.36z M443.794,194.391c1.32,0.712,1.976,1.598,2.264,3.062&#10;&#9;&#9;c0.237,1.208,0.005,2.073-0.829,3.087c-5.414,6.582-27.43,9.929-44.352,10.581c0.149-3.56,0.534-7.062,1.156-10.489&#10;&#9;&#9;C415.929,195.372,436.4,190.408,443.794,194.391z M442.525,144.868c0.002,0,0.007,0,0.012,0c2.987,0.001,6.511,0.932,7.648,3.008&#10;&#9;&#9;c1.085,1.974-0.203,5.458-2.694,7.307c-2.747,2.036-6.755,2.994-12.616,3.018c-4.772,0.017-10.179-1.947-15.393-3.992&#10;&#9;&#9;C425.008,148.742,435.105,144.868,442.525,144.868z M377.896,155.512c-6.99-2.184-9.12-7.102-8.82-10.651&#10;&#9;&#9;c0.394-4.673,4.703-8.124,11.245-9.007c0.649-0.089,1.285-0.131,1.911-0.131c10.389,0,17.44,11.619,20.678,18.43&#10;&#9;&#9;C397.508,156.233,387.995,158.667,377.896,155.512z M343.828,266.946c4.143-6.574,10.686-12.056,18.924-15.854&#10;&#9;&#9;c5.698-2.628,10.953-3.809,15.582-3.505c4.014,0.261,9.206,1.949,12.788,3.915c-1.369,1.644-2.685,3.307-3.968,4.951&#10;&#9;&#9;l-19.661,25.236c-1.656,2.124-3.907,5.024-4.791,8.651c-0.007,0.024-0.014,0.048-0.021,0.073c-0.008,0.036-0.021,0.068-0.029,0.104&#10;&#9;&#9;c-0.359,1.437-7.655,31.684,6.392,59.32c-8.162-1.414-15.923-3.828-22.483-7.424l-0.348-0.191c-2.447-1.344-5.47-2.992-8.74-3.948&#10;&#9;&#9;c-7.637-15.223-7.568-32.935,0.175-56.965C339.215,276.457,341.046,271.359,343.828,266.946z M296.398,338.601&#10;&#9;&#9;c3.422-16.193,15.223-28.48,24.285-35.811c-1.362,11.634-0.707,24.361,4.488,36.835c-2.933,1.895-4.667,4.707-5.707,6.68&#10;&#9;&#9;c-5.382,10.181-5.793,22.764-1.29,33.349c-3.262,1.122-6.519,2.517-9.744,4.067C297.428,368.094,293.37,352.934,296.398,338.601z&#10;&#9;&#9; M238.52,419.781c5.122-6.511,13.214-14.374,22.661-14.861c6.854-0.349,13.445,2.921,21.244,7.341&#10;&#9;&#9;c-1.709,1.339-3.387,2.715-5.052,4.083c-4.214,3.463-8.196,6.734-12.448,9.234c-2.367,1.393-4.924,2.602-7.627,3.882&#10;&#9;&#9;c-5.628,2.663-11.45,5.417-16.284,10.196c-7.9,7.812-11.113,19.994-8.237,30.707c-1.979,1.899-3.962,3.953-5.954,6.21&#10;&#9;&#9;c-4.596,5.206-10.13,12.169-13.765,20.445c-8.448-1.595-18.206-0.125-26.763,4.308c-1.14,0.59-2.228,1.222-3.268,1.886&#10;&#9;&#9;c-4.776-12.384-2.881-27.372,5.244-35.906c4.072-4.279,9.29-7.505,14.813-10.921c4.825-2.985,9.815-6.071,14.295-10.048&#10;&#9;&#9;c6.043-5.366,10.575-11.826,14.96-18.074C234.425,425.29,236.397,422.48,238.52,419.781z M197.128,321.124&#10;&#9;&#9;c2.632,2.441,2.496,4.365,1.481,6.504c-4.599,9.692-31.925,5.839-51.108-0.174c-0.054-0.622-0.139-1.234-0.187-1.857&#10;&#9;&#9;c-0.183-2.4-0.299-4.833-0.383-7.28C163.45,310.898,188.656,313.261,197.128,321.124z M104.224,305.025&#10;&#9;&#9;c-9.924-1.27-18.023-4.227-22.219-8.117c-1.967-1.824-1.702-2.954-1.614-3.326c0.392-1.665,2.736-4.003,6.312-5.053&#10;&#9;&#9;c3.906-1.149,8.459-1.732,13.203-1.732c3.247,0,6.587,0.273,9.871,0.824c9.313,1.566,18.715,4.622,25.951,7.359&#10;&#9;&#9;c-0.096,1.169-0.169,2.332-0.245,3.494C126.171,303.993,114.946,306.397,104.224,305.025z M110.801,378.707&#10;&#9;&#9;c-11.63,1.959-19.889-1.059-22.023-5.057c-1.469-2.746,0.511-5.753,2.432-7.791c1.264-1.34,3.418-2.354,6.782-3.19&#10;&#9;&#9;c4.014-0.997,8.687-2.128,13.348-2.941c9.905-1.724,20.026-1.966,29.685-1.816c0.389,1.414,0.822,2.804,1.247,4.198&#10;&#9;&#9;C134.523,370.412,122.772,376.689,110.801,378.707z M115.739,430.246c-0.076,0.002-0.154,0.002-0.23,0.002&#10;&#9;&#9;c-5.543,0-7.713-2.13-8.864-3.741c-2.761-3.866-1.974-6.189-0.712-8.126c7.794-11.946,43.394-19.473,53.15-19.404&#10;&#9;&#9;c1.591,2.504,3.244,4.953,4.974,7.321C155.564,413.988,131.458,430.082,115.739,430.246z M166.469,468.481&#10;&#9;&#9;c0.956-4.06,0.806-8.126,0.672-11.714c-0.14-3.741-0.272-7.275,0.861-9.996c2.736-6.567,12.807-8.71,21.277-9.842&#10;&#9;&#9;c5.465-0.732,12.328-1.679,19.191-2.627c1.659-0.229,3.319-0.457,4.958-0.683c-1.236,1.37-2.514,2.685-3.881,3.899&#10;&#9;&#9;c-3.719,3.302-8.065,5.991-12.666,8.838c-5.916,3.658-12.031,7.441-17.15,12.818c-12.283,12.902-14.535,35.21-5.837,52.524&#10;&#9;&#9;c-2.015,2.797-3.468,5.838-4.225,9.063c-2.174,9.291-0.189,18.191,1.73,26.8c0.743,3.331,1.437,6.507,1.895,9.634&#10;&#9;&#9;c-5.488-4.079-10.314-9.035-14.307-14.596c-0.04-0.062-0.086-0.119-0.129-0.178c-6.211-8.709-10.385-18.872-11.772-29.478&#10;&#9;&#9;c-0.93-7.132-0.368-12.757,1.718-17.193c1.596-3.387,4.284-6.505,7.128-9.806C160.074,481.14,164.767,475.695,166.469,468.481z&#10;&#9;&#9; M72.383,557.675l11.681-15.949c0.933-1.274,1.317-2.867,1.064-4.424c-0.251-1.558-1.117-2.95-2.402-3.864&#10;&#9;&#9;c-8.429-5.995-15.916-26.1-19.536-38.064c5.847-1.679,16.492-4.974,34.36-11.213c18.586-6.491,36.403-4.47,46.437-2.324&#10;&#9;&#9;c-2.196,2.696-4.281,5.559-5.85,8.893c-3.077,6.538-3.973,14.303-2.741,23.74c1.12,8.58,3.8,16.91,7.718,24.618&#10;&#9;&#9;c-11.628-1.773-21.673-6.142-29.841-11.093c6.796-14.207,0.643-32.221,0.341-33.083c-1.08-3.072-4.452-4.691-7.515-3.612&#10;&#9;&#9;c-3.072,1.077-4.691,4.441-3.613,7.515c0.053,0.149,4.229,12.764,0.881,22.286c-9.029-7.147-14.041-13.63-14.151-13.775&#10;&#9;&#9;c-1.96-2.594-5.645-3.116-8.249-1.163c-2.602,1.958-3.127,5.654-1.17,8.256c0.72,0.958,11.873,15.501,31.471,26.141&#10;&#9;&#9;c-6.141,10.926-23.847,13.463-24.095,13.497c-3.224,0.421-5.497,3.373-5.083,6.599c0.382,2.973,2.92,5.143,5.84,5.143&#10;&#9;&#9;c0.251,0,0.504-0.016,0.76-0.048c1.113-0.144,24.633-3.389,33.328-20.186c8.529,3.349,18.229,5.691,28.999,6.082&#10;&#9;&#9;c1.389,1.803,2.878,3.526,4.416,5.204c-12.837,7.152-25.367,14.915-35.831,24.215C96.03,581.82,78.693,564.939,72.383,557.675z&#10;&#9;&#9; M102.669,648.349c0.396-2.914,0.702-5.846,1.006-8.778c0.709-6.815,1.379-13.25,3.178-19.368&#10;&#9;&#9;c7.358-25.038,32.205-40.949,57.657-54.898c2.896,2.29,5.958,4.365,9.164,6.203c-0.174,2.82-0.417,5.675-0.691,8.606&#10;&#9;&#9;c-0.34,3.625-0.664,7.331-0.836,11.082c-2.234,0.663-4.15,1.612-5.84,2.785c-4.527-0.905-13.396-1.811-26.618,0.639&#10;&#9;&#9;c-3.203,0.594-5.318,3.671-4.723,6.872c0.592,3.201,3.685,5.311,6.87,4.723c6.338-1.174,11.415-1.439,15.25-1.344&#10;&#9;&#9;c-0.088,0.145-0.177,0.287-0.265,0.433c-2.741,4.533-4.366,9.337-5.942,13.983c-1.161,3.425-2.257,6.661-3.731,9.613&#10;&#9;&#9;c-1.491,2.982-3.061,5.836-4.693,8.569c-6.865,2.752-21.904,7.753-30.975,6.363c-3.208-0.484-6.227,1.717-6.72,4.935&#10;&#9;&#9;c-0.491,3.22,1.718,6.227,4.938,6.72c1.665,0.256,3.411,0.368,5.205,0.368c5.297,0,10.997-0.997,16.198-2.3&#10;&#9;&#9;c-13.325,16.155-28.231,26.368-38.945,32.28C97.33,673.876,100.925,661.168,102.669,648.349z M103.508,693.003&#10;&#9;&#9;c16.632-10.125,38.95-28.344,54.189-58.832c0.035-0.069,0.062-0.139,0.097-0.208c6.629,2.843,19.515,12.487,20.796,44.636&#10;&#9;&#9;c0.127,3.175,2.738,5.662,5.886,5.662c0.081,0,0.159-0.001,0.24-0.005c3.254-0.13,5.785-2.872,5.656-6.125&#10;&#9;&#9;c-1.528-38.368-18.387-50.996-28.302-55.116c1.427-4.213,2.779-8.193,4.844-11.613c2.221-3.678,3.839-5.959,5.655-7.38&#10;&#9;&#9;c1.765,12.622,8.127,26.708,21.704,31.6c4.493,1.619,9.074,1.96,13.392,1.96c1.64,0,3.24-0.048,4.786-0.097&#10;&#9;&#9;c5.769-0.177,12.174-0.666,18.369-1.138c4.649-0.354,9.412-0.714,13.866-0.941c1.557,3.385,3.487,6.794,5.911,10.226&#10;&#9;&#9;c0.168,8.103-4.911,20.111-10.857,25.178c-7.006,5.972-16.102,9.626-24.898,13.159c-12.977,5.213-40.779,15.801-63.957,20.741&#10;&#9;&#9;c4.415-6.12,7.811-13.256,10.938-20.35c1.112-2.525,0.325-5.485-1.895-7.122c-2.225-1.639-5.281-1.519-7.365,0.291&#10;&#9;&#9;c-8.705,7.555-17.072,12.092-24.863,13.483c-3.488,0.622-7.017,1.057-10.57,1.368c-0.66-0.061-1.305-0.002-1.925,0.15&#10;&#9;&#9;C111.324,692.82,107.421,692.971,103.508,693.003z M122.024,798.908c-5.962-11.551-6.52-25.368-6.283-37.36&#10;&#9;&#9;c0.365-18.138,1.376-38.949,5.628-57.752c2.803-0.31,5.604-0.675,8.401-1.174c3.418-0.61,6.828-1.624,10.251-3.056&#10;&#9;&#9;c-2.888,3.603-6.211,6.486-10.262,8.287c-0.272,0.122-0.522,0.278-0.769,0.439c-0.081,0.052-0.173,0.091-0.251,0.147&#10;&#9;&#9;c-0.214,0.154-0.403,0.337-0.594,0.518c-2.161,2.049-2.441,5.486-0.596,7.871c3.993,5.161,17.089,1.111,22.405,0.08&#10;&#9;&#9;c8.952-1.737,17.774-4.131,26.494-6.78c14.484-4.4,28.742-9.573,42.788-15.214c9.226-3.706,19.679-7.905,28.154-15.127&#10;&#9;&#9;c4.09-3.486,7.728-8.84,10.4-14.744c3.745,12.869,5.297,25.604,0.394,36.86c-6.388,14.667-22.334,23.228-37.755,31.508&#10;&#9;&#9;l-3.933,2.119c-1.112,0.603-2.192,1.208-3.276,1.811c-4.478-11.093-15.58-21.428-27.087-23.976&#10;&#9;&#9;c-10.679-2.361-19.714,0.829-23.048,8.127c-2.962,6.478-0.539,14.557,6.322,21.086c5.248,4.993,11.711,8.638,18.743,10.758&#10;&#9;&#9;c-1.127,0.837-2.229,1.678-3.317,2.527c-5.829,4.548-11.029,9.219-15.676,14.081l-5.776-8.094&#10;&#9;&#9;c-4.263-5.956-14.246-19.908-28.663-18.31c-5.552,0.614-10.665,3.829-14.025,8.819c-3.362,4.992-4.417,10.937-2.899,16.312&#10;&#9;&#9;c0.995,3.518,2.971,6.872,6.045,10.253c6.755,7.425,17.596,12.432,28.414,13.687c-5.257,9.405-8.823,19.283-10.545,29.16&#10;&#9;&#9;C134.098,814.926,126.579,807.735,122.024,798.908z M261.432,736.558c7.328,2.469,12.701,8.528,13.065,14.734&#10;&#9;&#9;c0.099,1.661-0.223,3.091-0.845,3.732c-0.279,0.289-0.921,0.735-2.395,1.213c-5.778,1.877-12.904,0.827-19.05-2.807&#10;&#9;&#9;c-4.733-2.796-11.225-9.512-15.716-15.399c0.813-0.466,1.624-0.935,2.431-1.415C246.198,735.039,253.914,734.025,261.432,736.558z&#10;&#9;&#9; M207.545,771.47c4.555,2.926,8.818,6.119,9.173,9.646c0.164,1.637-0.709,3.033-1.469,3.916c-1.605,1.86-4.18,3.135-6.557,3.248&#10;&#9;&#9;c-5.838,0.248-11.301-3.649-14.928-6.986c-3.255-2.994-6.249-6.555-8.689-10.298c1.816-1.611,3.712-3.205,5.691-4.784&#10;&#9;&#9;C195.542,765.537,200.903,767.205,207.545,771.47z M132.56,770.989c-1.817-1.997-2.936-3.803-3.422-5.524&#10;&#9;&#9;c-0.564-2.004-0.067-4.441,1.333-6.521c1.398-2.078,3.471-3.456,5.539-3.685c0.309-0.034,0.613-0.051,0.919-0.051&#10;&#9;&#9;c6.352,0,12.319,7.157,16.86,13.504l7.427,10.408c-0.499,0.638-0.978,1.284-1.459,1.93&#10;&#9;&#9;C150.151,781.79,138.592,777.62,132.56,770.989z M202.471,743.654c-9.275-0.024-18.548-3.54-24.937-9.62&#10;&#9;&#9;c-2.87-2.729-4.472-6.013-3.729-7.64c0.585-1.279,2.773-1.996,5.573-1.996c1.301,0,2.734,0.154,4.203,0.479&#10;&#9;&#9;c8.242,1.825,16.987,10.514,19.327,18.501C202.76,743.469,202.619,743.562,202.471,743.654z M390.586,1000.425&#10;&#9;&#9;c-37.723-2.012-80.259-7.634-109.709-34.089c-6.284-5.644-13.487-16.013-20.229-27.173c18.085,7.064,38.153,10.69,62.77,11.492&#10;&#9;&#9;c0.064,0.002,0.129,0.003,0.196,0.003c3.167,0,5.783-2.515,5.889-5.703c0.106-3.254-2.446-5.979-5.702-6.084&#10;&#9;&#9;c-29.971-0.977-52.616-6.33-73.143-17.285c-3.927-7.288-7.317-13.997-9.776-18.993c4.661,0.115,9.322,0.184,13.984,0.184&#10;&#9;&#9;c33.214,0,66.409-2.912,99.166-8.719c17.026-3.018,34.119-6.862,50.649-10.579c19.347-4.35,39.353-8.849,59.173-11.995&#10;&#9;&#9;c42.557-6.753,85.421-7.637,127.919-2.682c-1.806,1.82-4.141,3.801-6.469,5.395c-0.124,0.086-0.249,0.176-0.366,0.272&#10;&#9;&#9;c-13.386,10.73-26.587,22.4-32.302,37.457c-18.569-1.865-37.643-6.089-56.147-10.215c-30.116-6.716-61.255-13.654-92.045-10.978&#10;&#9;&#9;c-3.245,0.283-5.645,3.141-5.361,6.385c0.283,3.243,3.13,5.639,6.384,5.362c28.976-2.524,59.216,4.219,88.457,10.74&#10;&#9;&#9;c18.339,4.089,37.237,8.284,55.981,10.289c-0.02,0.207-0.061,0.406-0.078,0.615c-0.378,4.551,0.007,8.927,0.38,13.16&#10;&#9;&#9;c0.283,3.201,0.548,6.226,0.481,9.177c-0.005,0.192-0.031,0.385-0.039,0.577c-29.243-14.768-64.981-21.694-108.991-21.032&#10;&#9;&#9;l-6.437,0.098c-36.072,0.568-73.391,1.154-106.17-12.435c-3.003-1.247-6.455,0.18-7.703,3.188c-1.246,3.008,0.182,6.458,3.19,7.705&#10;&#9;&#9;c35.038,14.525,73.585,13.919,110.87,13.332l6.421-0.099c43.498-0.618,78.387,6.355,106.405,21.28&#10;&#9;&#9;c-1.337,3.663-3.218,7.219-5.538,10.606c-30.377-4.453-61.168-3.642-90.98-2.841c-31.316,0.842-63.693,1.71-94.954-3.671&#10;&#9;&#9;c-3.201-0.545-6.255,1.603-6.81,4.81c-0.553,3.209,1.601,6.258,4.811,6.811c32.41,5.579,65.384,4.695,97.271,3.837&#10;&#9;&#9;c26.724-0.719,54.25-1.455,81.179,1.686c-4.257,3.742-9.152,7.043-14.6,9.691c-18.484,8.984-40.351,10.429-59.396,11.078&#10;&#9;&#9;C436.431,1001.86,413.341,1001.637,390.586,1000.425z M577.977,1022.01c-4.217,21.603-18.392,32.106-26.464,36.443&#10;&#9;&#9;c-12.005,6.451-23.58,6.859-29.248,4.516c-3.254-1.345-6.743-7.644-10.437-14.313c-6.425-11.605-14.959-26.978-32.053-36.97&#10;&#9;&#9;c14.72-1.377,29.996-4.275,43.989-11.076c10.508-5.109,19.359-12.307,25.952-20.658c0.162-0.181,0.305-0.377,0.444-0.578&#10;&#9;&#9;c7.573-9.808,12.046-21.16,12.312-32.639c0.085-3.608-0.223-7.105-0.523-10.487c-0.343-3.91-0.67-7.604-0.375-11.148&#10;&#9;&#9;c1.377-16.54,15.828-29.471,30.563-41.294c3.477-2.39,9.937-7.388,12.999-13.232c9.415,1.373,18.81,3.007,28.174,4.955&#10;&#9;&#9;c0.309,0.064,0.619,0.135,0.927,0.2C624.534,897.26,584.943,986.343,577.977,1022.01z M934.609,758.732&#10;&#9;&#9;c-0.884,1.315-1.937,2.628-3.051,4.018c-2.718,3.391-5.799,7.235-7.188,12.248c-1.188,4.29-0.864,8.493-0.578,12.201&#10;&#9;&#9;c0.081,1.057,0.163,2.114,0.205,3.164c0.417,10.473-4.615,21.459-13.463,29.387c-8.848,7.928-20.317,11.729-30.68,10.172&#10;&#9;&#9;c-2.43-0.359-4.85,0.823-6.043,2.986l-2.096,3.809c-4.114,3.545-8.4,6.872-12.793,10.042c3.945-19.926-1.276-44.025-14.506-58.78&#10;&#9;&#9;c-2.176-2.424-5.9-2.629-8.325-0.454c-2.425,2.174-2.628,5.901-0.454,8.325c13.668,15.244,16.842,45.007,6.95,61.494&#10;&#9;&#9;c-32.401,18.711-70.103,27.99-107.644,25.892c-23.433-1.307-46.949-6.975-69.69-12.456c-9.652-2.327-19.633-4.733-29.543-6.795&#10;&#9;&#9;c-10.973-2.282-21.984-4.172-33.022-5.684c-0.641-0.211-1.328-0.292-2.031-0.257c-46.025-6.102-92.516-5.528-138.651,1.793&#10;&#9;&#9;c-20.193,3.205-40.385,7.746-59.914,12.138c-16.4,3.688-33.359,7.501-50.12,10.473c-48.379,8.575-97.708,10.702-146.649,6.327&#10;&#9;&#9;l-14.564-2.092c-6.045-1.115-11.787-3.743-16.912-7.477c9.948-1.192,18.701-6.55,23.457-14.406&#10;&#9;&#9;c5.543-9.156,4.926-20.985-1.502-28.768c-7.132-8.636-20.773-10.337-29.195-3.641c-2.547,2.028-2.971,5.737-0.942,8.285&#10;&#9;&#9;c2.024,2.545,5.734,2.972,8.284,0.943c3.402-2.707,9.725-1.758,12.761,1.921c3.185,3.856,3.404,10.37,0.507,15.154&#10;&#9;&#9;c-2.879,4.758-8.627,8.148-14.997,8.847c-2.344,0.259-4.535,0.159-6.508-0.295c-0.859-0.362-3.245-1.407-5.319-2.738&#10;&#9;&#9;c-3.709-6.022-6.344-12.862-7.444-20.11c-2.906-19.133,3.632-40.464,17.943-58.526c1.755-2.215,3.634-4.383,5.615-6.519&#10;&#9;&#9;c2.714,3.854,5.88,7.492,9.276,10.616c7.208,6.634,14.912,10.112,22.35,10.112c0.371,0,0.744-0.009,1.115-0.026&#10;&#9;&#9;c5.622-0.266,11.204-3.003,14.93-7.325c3.21-3.722,4.728-8.265,4.272-12.794c-0.97-9.679-9.792-15.346-14.532-18.39&#10;&#9;&#9;c-3.367-2.162-6.6-3.801-9.738-5c5.466-3.58,11.415-7.119,17.934-10.654l3.892-2.097c0.014-0.007,0.028-0.014,0.041-0.022&#10;&#9;&#9;c5.354,7.351,13.548,15.897,20.16,19.804c6.011,3.553,12.586,5.381,18.965,5.381c3.332,0,6.612-0.499,9.728-1.511&#10;&#9;&#9;c3.081-1.001,5.449-2.386,7.234-4.235c2.966-3.069,4.433-7.55,4.136-12.617c-0.652-11.054-9.117-21.187-21.072-25.215&#10;&#9;&#9;c-2.837-0.956-5.627-1.531-8.376-1.854c5.023-4.778,9.287-10.295,12.171-16.918c0.599-1.375,1.108-2.761,1.564-4.156&#10;&#9;&#9;c12.725,4.707,27.021,5.007,40.926,5.28c18.122,0.357,35.24,0.694,46.962,10.518c7.349,6.16,11.064,16.014,9.242,24.518&#10;&#9;&#9;c-1.842,8.601-9.94,15.568-18.076,15.568c-0.025,0-0.051,0-0.076,0c-4.445-0.023-8.542-2.063-10.437-5.196&#10;&#9;&#9;c-1.72-2.846-1.253-7.035,0.981-8.79c2.561-2.01,3.008-5.716,0.997-8.277c-2.013-2.562-5.718-3.01-8.279-0.997&#10;&#9;&#9;c-6.879,5.401-8.581,16.241-3.788,24.166c4.035,6.669,11.876,10.84,20.464,10.884c0.046,0,0.092,0,0.136,0&#10;&#9;&#9;c13.624,0,26.613-10.907,29.607-24.888c2.757-12.855-2.425-26.997-13.198-36.026c-14.905-12.494-34.934-12.887-54.302-13.27&#10;&#9;&#9;c-14.212-0.279-27.704-0.561-38.867-5.255c0.66-8.642-0.697-17.454-2.977-26.07c13.446,9.311,29.751,14.652,46.029,14.652&#10;&#9;&#9;c0.421,0,0.845-0.005,1.267-0.012c5.405-0.092,10.725-0.732,15.87-1.354c6.584-0.792,12.809-1.542,18.958-1.186&#10;&#9;&#9;c2.43,0.14,4.887,0.456,7.489,0.789c5.352,0.685,10.886,1.392,16.683,0.618c10.582-1.414,19.37-7.469,25.844-12.587&#10;&#9;&#9;c6.067-4.797,10.832-9.425,14.618-14.178c0.187,0.001,0.372,0.011,0.558,0.011c25.31,0,50.806-14.311,67.097-37.845&#10;&#9;&#9;c4.924-7.114,7.812-13.35,9.094-19.628c1.347-6.586,0.864-13.026,0.396-19.252c-0.104-1.384-0.207-2.767-0.288-4.144&#10;&#9;&#9;c-0.525-8.873-0.108-18.065,0.297-26.954c0.297-6.524,0.603-13.27,0.553-19.983c-0.12-15.724-2.494-28.732-7.173-39.495&#10;&#9;&#9;c10.85-1.257,21.794-6.068,31.531-12.38c17.919,19.976,44.065,32.165,70.936,32.838c2.239,0.05,4.364-1.191,5.396-3.208&#10;&#9;&#9;c0.053-0.104,0.101-0.207,0.147-0.311l55.792,12.595c17.056,3.851,37.195,10.251,41.601,25.683c0.725,2.54,3.047,4.278,5.668,4.278&#10;&#9;&#9;c0.081,0,0.161-0.001,0.242-0.006c2.722-0.111,5.011-2.069,5.543-4.74c4.723-23.733,9.608-48.275,6.663-73.277&#10;&#9;&#9;c-2.97-25.246-14.086-49.068-31.165-67.686c18.189-1.781,36.779,2.726,52.099,12.845c1.598,1.056,3.176,2.175,4.756,3.296&#10;&#9;&#9;c5.974,4.236,12.153,8.618,19.914,10.362c0.773,0.174,1.541,0.298,2.308,0.415c-7.835,26.049-10.362,53.96-7.284,80.968&#10;&#9;&#9;c0.343,3.008,2.895,5.228,5.852,5.228c0.223,0,0.449-0.013,0.675-0.039c3.236-0.368,5.559-3.29,5.191-6.524&#10;&#9;&#9;c-3.028-26.543-0.315-54.016,7.842-79.451c0.021-0.064,0.023-0.129,0.042-0.193c2.493-0.297,4.958-0.704,7.393-1.112&#10;&#9;&#9;c1.49-0.251,2.978-0.5,4.461-0.719c30.224-4.447,62.738,5.877,84.86,26.938c4.518,4.302,8.599,8.974,12.548,13.888&#10;&#9;&#9;c-0.759,1.968-0.462,4.271,1.012,5.977c1.168,1.348,2.81,2.039,4.463,2.039c0.233,0,0.465-0.033,0.698-0.061&#10;&#9;&#9;c1.285,1.704,2.572,3.421,3.874,5.163c5.741,7.686,11.697,15.552,18.412,22.81c-17.294,14.151-29.045,35.274-31.742,57.442&#10;&#9;&#9;c-0.394,3.231,1.907,6.171,5.14,6.563c0.242,0.03,0.481,0.044,0.719,0.044c2.939,0,5.481-2.192,5.845-5.184&#10;&#9;&#9;c2.388-19.626,12.98-38.294,28.512-50.538c12.608,10.804,29.141,18.793,45.411,18.793c6.941,0,13.836-1.453,20.349-4.761&#10;&#9;&#9;c2.904-1.474,4.063-5.023,2.589-7.926c-1.476-2.904-5.023-4.06-7.927-2.587c-18.479,9.381-41.792-1.332-56.711-16.104&#10;&#9;&#9;c-7.768-7.692-14.269-16.395-21.151-25.609c-1.244-1.665-2.5-3.339-3.764-5.016l24.903-21.528&#10;&#9;&#9;c6.973-6.028,14.875-12.86,19.26-22.452c1.354-2.962,0.051-6.46-2.911-7.814c-2.962-1.353-6.458-0.051-7.812,2.911&#10;&#9;&#9;c-3.319,7.256-9.891,12.938-16.248,18.434l-24.445,21.133c-4.004-4.931-8.24-9.728-12.896-14.16&#10;&#9;&#9;c-7.503-7.143-16.089-13.16-25.336-17.963c4.334-21.461,2.027-44.145-6.625-64.275c-1.287-2.992-4.746-4.373-7.745-3.089&#10;&#9;&#9;c-2.992,1.286-4.373,4.752-3.088,7.744c7.349,17.104,9.553,36.275,6.394,54.599c-18.471-7.276-38.81-9.945-58.308-7.078&#10;&#9;&#9;c-1.559,0.229-3.125,0.492-4.696,0.757c-6.241,1.047-12.132,2.034-17.477,0.834c-5.456-1.227-10.421-4.749-15.681-8.477&#10;&#9;&#9;c-1.686-1.195-3.369-2.388-5.076-3.517c-20.269-13.384-45.518-18.221-69.289-13.3c-1.16-0.985-2.32-1.969-3.52-2.91&#10;&#9;&#9;c-9.871-7.746-21.889-14.015-34.769-18.527c9.045-2.58,17.543-7.068,24.139-10.553c14.166-7.487,23.714-15.455,30.049-25.077&#10;&#9;&#9;c3.83-5.818,6.359-12.131,8.721-18.306c0.001-0.002,0.002-0.005,0.003-0.008c0.193-0.506,0.388-1.011,0.579-1.514&#10;&#9;&#9;c0.776-2.036,1.55-4.072,2.37-6.084c0.672-1.651,1.386-3.217,2.103-4.782c8.37-6.811,20.584-12.528,29.962-10.481&#10;&#9;&#9;c10.315,2.252,19.472,9.605,23.9,19.19c1.476,3.19,3.657,9.42,1.69,15.301c-1.451,4.326-5.364,7.549-9.143,7.549&#10;&#9;&#9;c-0.037,0-0.076,0-0.115-0.001c-1.902-0.033-4.109-0.835-6.382-2.32c-3.323-2.172-5.396-5.011-5.543-7.598&#10;&#9;&#9;c-0.06-1.033,0.479-2.31,1.313-3.107c0.164-0.153,0.677-0.651,1.211-0.602c3.215,0.344,6.137-2.012,6.476-5.25&#10;&#9;&#9;c0.339-3.238-2.01-6.139-5.251-6.477c-3.834-0.404-7.593,0.948-10.578,3.801c-3.358,3.206-5.205,7.811-4.944,12.316&#10;&#9;&#9;c0.368,6.395,4.33,12.514,10.865,16.785c4.194,2.742,8.443,4.167,12.627,4.24c0.104,0.002,0.207,0.003,0.309,0.003&#10;&#9;&#9;c8.774,0,17.291-6.512,20.335-15.596c2.418-7.224,1.647-15.745-2.167-23.994c-5.946-12.866-18.242-22.737-32.09-25.761&#10;&#9;&#9;c-6.566-1.434-13.436-0.558-19.946,1.624c4.132-4.951,8.641-9.061,13.56-12.193c9.267-5.903,22.225-7.991,39.405-6.359&#10;&#9;&#9;c0.469,0.227,0.963,0.417,1.5,0.514c0.843,0.152,1.672,0.108,2.452-0.083c1.727,0.213,3.479,0.448,5.286,0.73&#10;&#9;&#9;c11.846,1.852,24.4,3.954,36.207,7.47c31.799,9.462,59.873,29.585,79.047,56.666c1.218,1.724,3.256,2.67,5.375,2.462l6.69-0.643&#10;&#9;&#9;c40.353-2.067,81.136,26.466,93.075,64.983c0.649,2.098,2.411,3.659,4.571,4.054c26.358,4.81,52.66,21.71,74.062,47.585&#10;&#9;&#9;c19.628,23.73,33.598,52.068,47.11,79.474c2.889,5.865,6.667,15.669,5.295,24.638c-7.107-7.258-15.018-13.286-22.743-16.934&#10;&#9;&#9;c2.031-7.423,1.118-16.332-2.802-26.618c-3.984-10.46-9.205-19.322-15.517-26.338c-17.549-19.513-43.56-26.284-71.346-31.259&#10;&#9;&#9;c0.018-4.395-0.274-8.822-1.133-13.227c-1.783-9.138-5.845-18.401-12.418-28.313c-25.071-37.814-70.931-59.674-115.901-56.75&#10;&#9;&#9;c-0.016-0.031-0.022-0.066-0.038-0.097c-6.361-12.399-15.847-23.041-27.438-30.776c-8.802-5.873-18.537-9.892-27.744-13.363&#10;&#9;&#9;c-17.622-6.637-36.608-12.338-56.061-9.139c-3.213,0.529-5.389,3.562-4.859,6.774c0.527,3.213,3.558,5.394,6.775,4.86&#10;&#9;&#9;c16.703-2.749,33.904,2.48,49.986,8.539c8.553,3.223,17.544,6.923,25.358,12.137c8.713,5.814,16.036,13.55,21.379,22.537&#10;&#9;&#9;c-1.492,0.257-2.982,0.537-4.468,0.851c-3.185,0.674-5.221,3.802-4.548,6.988c0.677,3.186,3.816,5.22,6.99,4.547&#10;&#9;&#9;c45.41-9.608,95.081,10.703,120.741,49.406c5.702,8.597,9.194,16.466,10.672,24.055c0.828,4.242,1.049,8.574,0.913,12.943&#10;&#9;&#9;c-0.314,0.567-0.561,1.181-0.676,1.856c-0.195,1.135-0.036,2.245,0.374,3.237c-0.563,6.254-1.715,12.547-2.852,18.732&#10;&#9;&#9;c-0.587,3.202,1.529,6.276,4.733,6.864c0.362,0.067,0.719,0.099,1.073,0.099c2.789,0,5.269-1.989,5.792-4.831&#10;&#9;&#9;c0.942-5.124,1.918-10.533,2.584-16.082c25.17,4.573,48.488,10.775,63.348,27.296c5.336,5.932,9.799,13.553,13.265,22.65&#10;&#9;&#9;c3.756,9.861,4.111,17.51,1.055,22.734c-3.892,6.65-13.15,9.354-22.302,11.554c-0.594,0.143-1.127,0.394-1.625,0.691&#10;&#9;&#9;c-6.622-6.258-14.756-11.681-24.453-14.552c0.367-1.155,0.744-2.306,1.088-3.468c0.341-1.148,0.675-2.309,1.013-3.474&#10;&#9;&#9;c2.784-9.654,5.414-18.772,11.987-24.142c2.522-2.06,2.895-5.774,0.834-8.295c-2.063-2.524-5.776-2.893-8.295-0.835&#10;&#9;&#9;c-9.422,7.698-12.839,19.549-15.856,30.004c-0.327,1.138-0.654,2.268-0.986,3.388c-0.716,2.414-1.503,4.805-2.323,7.184&#10;&#9;&#9;c-0.701,0.819-1.198,1.832-1.365,2.979c-0.048,0.332-0.051,0.657-0.044,0.981c-3.654,9.838-8.177,19.347-13.528,28.38&#10;&#9;&#9;c-1.688,2.849-3.701,6.079-6.22,8.369c-6.225,5.658-16.139,6.524-26.609,6.965c-3.252,0.137-5.778,2.886-5.642,6.139&#10;&#9;&#9;c0.134,3.169,2.745,5.647,5.886,5.647c0.083,0,0.168-0.001,0.253-0.005c5.813-0.245,11.509-0.632,16.858-1.764&#10;&#9;&#9;c0.195,7.233,1.884,15.238,3.749,19.603c8.321,19.474,12.215,49.205-4.191,68.907c-13.59,16.317-33.445,21.884-66.093,18.497&#10;&#9;&#9;c-2.6-3.187-5.307-6.32-8.074-9.447c-5.152-5.82-10.567-11.761-16.233-17.678c12.017-14.778,23.958-24.642,38.231-31.634&#10;&#9;&#9;c1.688-0.827,3.42-1.58,5.152-2.335c4.869-2.121,9.903-4.316,14.348-8.033c2.499-2.089,2.83-5.806,0.742-8.305&#10;&#9;&#9;c-2.086-2.499-5.808-2.83-8.305-0.742c-3.146,2.63-7.201,4.399-11.497,6.271c-1.893,0.824-3.784,1.651-5.626,2.554&#10;&#9;&#9;c-15.544,7.615-28.495,18.167-41.356,33.763c-7.451-7.366-15.338-14.574-23.703-21.329c10.362-6.485,18.597-16.499,26.609-26.267&#10;&#9;&#9;c3.411-4.158,6.633-8.087,9.924-11.617c14.251-15.291,32.371-26.523,52.402-32.487c3.121-0.929,4.898-4.211,3.97-7.332&#10;&#9;&#9;c-0.933-3.123-4.233-4.898-7.333-3.969c-22.044,6.561-41.983,18.922-57.667,35.748c-3.544,3.805-7.038,8.063-10.414,12.18&#10;&#9;&#9;c-8.454,10.306-17.176,20.92-27.721,25.929c-11.115-8.058-23.007-15.209-35.788-20.795c-2.452-1.071-4.915-2.063-7.386-2.993&#10;&#9;&#9;c6.953-12.742,9.065-28.572,10.193-44.054c0.468-6.398,0.233-12.754,0.005-18.902c-0.17-4.558-0.329-8.863-0.228-13.201&#10;&#9;&#9;c0.527-22.25,8.275-44.232,21.816-61.893c1.983-2.584,1.495-6.285-1.089-8.267c-2.586-1.982-6.283-1.49-8.268,1.092&#10;&#9;&#9;c-15.05,19.628-23.661,44.058-24.246,68.79c-0.111,4.696,0.062,9.382,0.23,13.915c0.228,6.097,0.44,11.856,0.021,17.606&#10;&#9;&#9;c-1.093,14.969-3.103,30.171-9.891,41.175c-34.957-9.989-70.469-6.083-96.96,11.254c-9.806-8.802-20.6-16.061-31.641-22.128&#10;&#9;&#9;c-10.27-13.266-12.379-27.981-6.218-43.759c1.184-3.034-0.316-6.453-3.349-7.637c-3.038-1.188-6.453,0.318-7.637,3.349&#10;&#9;&#9;c-5.267,13.495-5.611,26.723-1.17,39.048c-16.814-7.31-33.273-12.23-46.815-15.816c-4.505-1.193-8.899-2.424-13.196-3.627&#10;&#9;&#9;c-9.587-2.688-18.792-5.261-27.777-7.024c-6.251-7.215-9.379-17.13-8.184-26.61c0.408-3.23-1.882-6.18-5.113-6.588&#10;&#9;&#9;c-3.224-0.398-6.181,1.882-6.587,5.113c-1.115,8.837,0.541,17.972,4.457,25.981c-16.294-1.076-32.137,2.068-48.536,13.984&#10;&#9;&#9;c-2.635,1.915-3.217,5.601-1.303,8.235c1.914,2.635,5.596,3.218,8.235,1.305c16.808-12.213,33.161-13.5,51.179-10.488&#10;&#9;&#9;c1.104,0.948,2.461,1.439,3.825,1.439c0.658,0,1.308-0.134,1.936-0.351c7.831,1.636,16.005,3.924,24.687,6.357&#10;&#9;&#9;c4.35,1.218,8.797,2.464,13.36,3.672c43.07,11.404,73.244,26.367,94.918,47.059c10.05,12.517,8.302,31.743,2.06,45.324&#10;&#9;&#9;c-1.361,2.957-0.065,6.458,2.895,7.819c0.797,0.366,1.635,0.539,2.457,0.539c2.232,0,4.369-1.273,5.361-3.434&#10;&#9;&#9;c6.538-14.223,9.849-35.669-0.167-52.638c27.623-17.28,67.476-18.542,103.403-2.843c36.578,15.986,66.102,45.917,90.157,73.087&#10;&#9;&#9;c8.913,10.066,17.291,20.069,21.869,31.756C941.046,737.182,940.41,750.114,934.609,758.732z M1117.786,644.487&#10;&#9;&#9;c-1.244,0.972-2.533,1.898-3.825,2.826c-4.171,2.996-8.484,6.096-11.761,10.739c-2.628,3.724-4.067,7.718-5.46,11.582&#10;&#9;&#9;c-0.702,1.948-1.368,3.791-2.151,5.495c-5.619,12.222-19,20.361-29.75,26.899l-4.074,2.48&#10;&#9;&#9;c-36.133,22.015-70.334,42.861-109.748,41.806c0.835-8.181-0.392-17.005-3.77-25.632c-1.842-4.703-4.169-9.076-6.801-13.258&#10;&#9;&#9;c2.563,0.135,5.147,0.231,7.761,0.231c20.66,0,42.462-4.791,58.247-23.748c2.065-2.479,3.86-5.072,5.432-7.745&#10;&#9;&#9;c10.355,5.946,22.256,9.084,34.177,9.084c5.566,0,11.135-0.679,16.545-2.065c3.155-0.808,5.057-4.02,4.249-7.175&#10;&#9;&#9;c-0.808-3.154-4.028-5.06-7.174-4.248c-14.403,3.691-30.125,1.298-42.839-6.347c7.242-20.826,3.26-44.626-4.416-62.589&#10;&#9;&#9;c-1.895-4.44-3.332-14.174-2.709-19.353c1.857-1.081,3.632-2.357,5.303-3.875c3.729-3.39,6.308-7.498,8.431-11.084&#10;&#9;&#9;c5.221-8.807,9.692-18.043,13.402-27.579c13.796,3.97,26.837,15.849,36.365,33.389c5.129,9.436,7.722,17.292,8.162,24.72&#10;&#9;&#9;c0.514,8.659-2.301,16.74-7.531,21.617c-2.381,2.22-2.513,5.951-0.29,8.332c1.161,1.245,2.734,1.875,4.313,1.875&#10;&#9;&#9;c1.439,0,2.883-0.525,4.019-1.584c7.77-7.245,11.98-18.811,11.261-30.937c-0.548-9.219-3.59-18.641-9.576-29.652&#10;&#9;&#9;c-2.3-4.234-5.481-9.426-9.579-14.676c8.231-2.218,16.613-5.417,22.31-11.818c17.226,7.82,37.792,32.639,41.092,50.59&#10;&#9;&#9;C1140.896,611.799,1133.013,632.576,1117.786,644.487z" style="fill: rgb(79, 79, 79);"/>
	<path fill="#180E26" d="M660.506,822.335c7.007-9.43,9.461-22.146,6.048-33.461c-0.94-3.117-4.231-4.88-7.346-3.942&#10;&#9;&#9;c-3.118,0.941-4.882,4.229-3.943,7.348c2.738,9.073-0.21,19.904-7.167,26.338c-0.295,0.272-0.56,0.572-0.79,0.896&#10;&#9;&#9;c-0.45,0.379-2.204,1.672-6.939,3.817c-41.334,0.889-82.564-8.098-119.875-26.232c-0.887-0.431-1.846-0.891-2.858-1.327&#10;&#9;&#9;c2.811-8.132,2.996-17.648,0.235-25.972c-1.027-3.091-4.357-4.768-7.452-3.74c-3.091,1.025-4.765,4.361-3.74,7.451&#10;&#9;&#9;c2.238,6.747,1.713,14.823-1.203,20.914c-2.829,0.736-5.289,2.082-7.378,3.239l-0.375,0.207&#10;&#9;&#9;c-30.556,16.875-67.967,20.753-101.379,10.771c6.027-10.956,8.184-23.973,5.769-36.3c-0.626-3.195-3.722-5.276-6.918-4.652&#10;&#9;&#9;c-3.197,0.626-5.278,3.724-4.652,6.919c2.342,11.963-0.826,24.762-8.475,34.257c-32.526,20.938-80.774,14.985-106.849-13.689&#10;&#9;&#9;c-2.188-2.408-5.919-2.586-8.328-0.395c-2.409,2.191-2.586,5.92-0.396,8.329c5.668,6.232,12.168,11.531,19.234,15.872&#10;&#9;&#9;c-9.342,4.499-15.985,10.261-24.243,17.449c-1.43,1.244-2.918,2.539-4.493,3.89c-2.469,2.121-2.752,5.844-0.631,8.314&#10;&#9;&#9;c1.165,1.359,2.814,2.055,4.475,2.055c1.359,0,2.727-0.468,3.839-1.422c1.594-1.369,3.102-2.683,4.551-3.942&#10;&#9;&#9;c10.686-9.301,17.355-15.089,30.632-19.24c28.587,11.554,62.718,9.569,88.89-7.478c21.489,7.177,44.682,8.951,67.085,5.573&#10;&#9;&#9;c2.575,1.423,4.73,5.531,4.715,9.339c-0.014,3.655-2.78,7.3-6.296,8.3c-3.132,0.889-4.951,4.15-4.062,7.282&#10;&#9;&#9;c0.737,2.593,3.1,4.286,5.67,4.286c0.532,0,1.076-0.073,1.612-0.226c8.583-2.438,14.836-10.68,14.868-19.596&#10;&#9;&#9;c0.015-3.894-1.094-8.223-3.226-11.993c11.952-2.954,23.525-7.424,34.312-13.382l0.389-0.214c2.1-1.164,4.085-2.264,5.64-2.313&#10;&#9;&#9;c1.612-0.052,3.676,0.964,6.006,2.097c39.167,19.036,82.649,28.43,126.135,27.325c0.031,0.001,0.061,0.014,0.093,0.014&#10;&#9;&#9;c0.083,0,0.167-0.022,0.251-0.026c2.204-0.059,4.408-0.12,6.612-0.233c2.411-0.123,4.873-0.273,7.34-0.421&#10;&#9;&#9;c4.94,1.491,9.825,5.662,13.18,11.351c3.514,5.958,4.793,12.59,3.42,17.744c-0.838,3.147,1.034,6.377,4.18,7.215&#10;&#9;&#9;c0.509,0.135,1.02,0.199,1.522,0.199c2.605,0,4.991-1.741,5.693-4.379c2.199-8.264,0.502-18.022-4.659-26.771&#10;&#9;&#9;c-1.352-2.291-2.888-4.397-4.555-6.311c21.197-0.636,41.329,1.235,54.161,15.277c1.163,1.272,2.757,1.918,4.355,1.918&#10;&#9;&#9;c1.419,0,2.844-0.51,3.975-1.543c2.404-2.197,2.572-5.926,0.375-8.33C718.327,819.769,687.971,820.707,660.506,822.335z" style="fill: rgb(79, 79, 79);"/>
	<path fill="#180E26" d="M1022.537,699.022c-14.232,15.459-35.242,24.667-56.253,24.667c-0.099,0-0.219,0-0.295-0.001&#10;&#9;&#9;c-3.245,0-5.884,2.624-5.896,5.874c-0.011,3.256,2.616,5.905,5.873,5.917c0.106,0.001,0.21,0.001,0.315,0.001&#10;&#9;&#9;c24.25,0,48.503-10.631,64.928-28.474c2.206-2.395,2.052-6.125-0.343-8.33C1028.472,696.47,1024.739,696.629,1022.537,699.022z" style="fill: rgb(79, 79, 79);"/>
	<path fill="#180E26" d="M1092.442,632.62c-14.813,14.387-39.229,18.685-58.067,10.216c-2.971-1.333-6.46-0.012-7.796,2.959&#10;&#9;&#9;c-1.336,2.971-0.009,6.46,2.959,7.796c8.139,3.659,16.975,5.427,25.819,5.427c16.625,0,33.267-6.251,45.302-17.941&#10;&#9;&#9;c2.335-2.268,2.388-6,0.12-8.337C1098.505,630.402,1094.775,630.352,1092.442,632.62z" style="fill: rgb(79, 79, 79);"/>
	<path fill="#180E26" d="M811.621,836.821c-17.853,15.104-42.336,22.096-65.462,18.728c-3.243-0.48-6.216,1.761-6.686,4.982&#10;&#9;&#9;s1.759,6.215,4.981,6.684c4.38,0.639,8.8,0.952,13.221,0.952c22.263,0,44.544-7.952,61.559-22.345&#10;&#9;&#9;c2.487-2.103,2.798-5.823,0.695-8.309C817.825,835.029,814.11,834.719,811.621,836.821z" style="fill: rgb(79, 79, 79);"/>
	<path fill="#180E26" d="M914.541,733.784c-3.213-0.572-6.269,1.571-6.835,4.778c-2.69,15.19-10.119,29.625-20.916,40.643&#10;&#9;&#9;c-2.28,2.325-2.243,6.058,0.083,8.337c1.147,1.125,2.637,1.686,4.127,1.686c1.529,0,3.056-0.592,4.21-1.77&#10;&#9;&#9;c12.445-12.698,21.005-29.332,24.108-46.839C919.884,737.413,917.747,734.352,914.541,733.784z" style="fill: rgb(79, 79, 79);"/>
</g>
</svg>