<svg version="1.1" id="Capa_1" xmlns="http://www.w3.org/2000/svg" xmlns:xlink="http://www.w3.org/1999/xlink" x="0px" y="0px" viewBox="0 0 1200 1200" enable-background="new 0 0 1200 1200" xml:space="preserve">
<path fill="#472E93" d="M442.677,312.833c12.264,61.259,22.922,122.744,34.737,184.092c0.586,3.039,3.921,5.223,6.868,5.229&#10;&#9;c36.967,0.07,74.852-5.373,111.108-12.284c34.003-6.482,68.372-11.036,102.459-17.133c17.218-3.08,34.43-6.202,51.689-9.045&#10;&#9;c11.175-1.84,28.276-0.879,37.941-6.529c12.397-7.247,10.189-30.88,9.852-42.572c-0.675-23.392-3.796-46.631-6.044-69.9&#10;&#9;c-3.011-31.171-5.325-62.137-10.381-93.097c-2.858-17.506-5.694-35.228-9.806-52.495c-1.779-7.469-4.006-15.845-10.25-20.872&#10;&#9;c-6.013-4.841-13.777-5.06-21.161-4.731c-17.13,0.764-34.278,3.46-51.322,5.287c-42.192,4.522-84.762,7.756-126.743,13.951&#10;&#9;c-42.542,6.278-84.389,16.57-127.069,22.093c-0.564,0.073-1.093,0.199-1.587,0.368c-1.178,0.228-2.355,0.748-3.449,1.718&#10;&#9;c-6.819,6.042,0.363,27.443,1.566,34.433C434.621,271.899,438.583,292.384,442.677,312.833z M441.538,224.144&#10;&#9;c0.255-0.649,0.624-0.279-0.159,0.887c0.011-0.261,0.043-0.472,0.086-0.647C441.497,224.305,441.51,224.224,441.538,224.144z&#10;&#9; M447.464,262.413c-0.448-2.452-0.88-4.906-1.32-7.36c7.272-2.881,15.873-3.6,23.372-5.286c9.794-2.202,19.537-4.569,29.413-6.387&#10;&#9;c18.079-3.329,36.25-6.532,54.411-9.381c29.573-4.639,61.063-8.801,91.206-6.317c11.997,31.116,21.573,63.03,26.707,96.045&#10;&#9;c5.394,34.691,7.124,69.81,10.359,104.732c-0.04,0.075-0.091,0.129-0.129,0.207c-4.661,9.466-26.839,12.403-35.886,14.796&#10;&#9;c-17.389,4.599-35.006,8.232-52.755,11.136c-35.353,5.783-71.185,9.784-107.029,10.29c-9.215-49.475-17.826-99.013-27.889-148.348&#10;&#9;C454.252,298.535,450.763,280.489,447.464,262.413z M681.468,223.868c2.33,12.999,2.613,26.273,4.32,39.37&#10;&#9;c2.905,22.286,7.781,44.26,11.282,66.455c3.801,24.096,6.915,48.292,10.398,72.435c1.739,12.055,2.727,24.723,4.988,36.991&#10;&#9;c-5.76-3.123-10.814-7.271-16.595-10.249c-0.006-0.111,0.013-0.205,0.002-0.319c-3.193-34.444-5.117-69.007-10.076-103.27&#10;&#9;c-5.024-34.718-14.763-68.202-27.317-100.875c8.025-4.923,13.496-12.546,19.505-19.695&#10;&#9;C678.961,211.092,680.306,217.388,681.468,223.868z M604.528,473.693c-37.634,6.819-75.99,13.588-114.381,14.164&#10;&#9;c-0.559-2.926-1.113-5.853-1.666-8.78c39.567-0.725,79.308-5.465,118.205-12.464c19.498-3.508,38.81-8.004,57.807-13.633&#10;&#9;c8.333-2.469,18.655-5.15,25.153-11.505c5.444,2.567,10.048,7.025,15.34,9.848c2.32,1.238,5.869,2.472,8.711,4.182&#10;&#9;c-2.573,0.458-5.149,0.905-7.723,1.365C672.231,462.9,638.238,467.585,604.528,473.693z M754.103,192.314&#10;&#9;c6.307,9.481,6.567,26.562,8.574,37.389c9.731,52.501,14.212,105.761,18.784,158.92c0.913,10.615,1.695,21.274,1.736,31.933&#10;&#9;c0.021,5.339,1.538,18.954-2.483,23.273c-3.94,4.232-19.87,3.709-26.005,4.678c-8.054,1.272-16.096,2.624-24.131,4.014&#10;&#9;c-5.233-15.566-6.21-32.431-8.564-48.595c-3.515-24.141-6.63-48.34-10.343-72.452c-3.773-24.503-9.349-48.77-12.289-73.391&#10;&#9;c-1.112-9.31-1.356-18.7-2.53-27.995c-1.596-12.644-5.293-24.766-5.904-37.548c14.169-1.551,28.343-3.046,42.529-4.316&#10;&#9;C740.808,187.57,749.54,185.457,754.103,192.314z M633.725,198.883c11.322-1.213,22.644-2.489,33.968-3.764&#10;&#9;c-5.759,7.099-11.145,14.569-19.482,18.66c-32.546-3.291-66.587,1.454-98.658,6.485c-19.897,3.121-39.907,6.461-59.664,10.368&#10;&#9;c-14.718,2.911-31.674,4.915-46.188,10.182c-0.212-1.299-0.445-2.595-0.65-3.895c-0.447-2.844-0.549-6.016-1.2-8.851&#10;&#9;c29.801-4.144,59.338-9.921,88.891-15.539C564.874,206.039,599.207,202.583,633.725,198.883z M737.159,389.433&#10;&#9;c7.708,5.696,19.609,3.378,24.676-4.775c4.095-6.589,2.811-15.492-2.4-21.087c-5.815-6.242-14.731-6.245-21.57-1.903&#10;&#9;c-0.9,0.354-1.78,0.938-2.594,1.826C728.129,371.293,728.383,382.947,737.159,389.433z M750.092,376.142&#10;&#9;C750.222,376.637,749.967,376.796,750.092,376.142L750.092,376.142z M748.302,372.758c-0.126-0.029-0.29-0.066-0.506-0.112&#10;&#9;c0.103,0.022,0.302,0.052,0.5,0.095C748.298,372.747,748.299,372.752,748.302,372.758z M747.646,372.669&#10;&#9;c0.021,0.013,0.036,0.027,0.084,0.039c0.115,0.03,0.394,0.08,0.613,0.113c0.073,0.059,0.212,0.129,0.4,0.201&#10;&#9;c0.169,0.175,0.339,0.35,0.51,0.524c0.063,0.091,0.143,0.21,0.245,0.377c0.031,0.05,0.105,0.191,0.179,0.333&#10;&#9;c0.092,0.255,0.216,0.585,0.242,0.682c0.021,0.075,0.056,0.273,0.09,0.476c0.002,0.217,0.017,0.499,0.04,0.55&#10;&#9;c0.024,0.053,0.017,0.086,0.032,0.134c-0.102,0.375-0.2,0.751-0.307,1.125c-0.055,0.193-0.081,0.228-0.09,0.191&#10;&#9;c-0.143,0.231-0.258,0.28-0.002-0.108c0.001-0.017,0.002-0.034,0.004-0.052c-0.133,0.162-0.289,0.317-0.461,0.465&#10;&#9;c-0.233,0.12-0.556,0.292-0.645,0.319c0.345-0.107-1.97,0.458-1.254,0.356c-0.193,0.027-0.32,0.049-0.434,0.069&#10;&#9;c-0.026-0.02-0.083-0.041-0.223-0.064c-0.232-0.038-0.644-0.2-0.835-0.27c-0.322-0.18-0.639-0.372-0.942-0.579&#10;&#9;c1.024,0.699-0.246-0.642,0.038-0.053c-0.325-0.675-0.427-0.549-0.586-1.179c-0.033-0.128-0.051-0.191-0.076-0.282&#10;&#9;c0.006-0.048,0.013-0.1,0.011-0.213c-0.001-0.194-0.024-0.245-0.05-0.251c0.032-0.099,0.06-0.181,0.105-0.329&#10;&#9;c0.219-0.717,0.239-0.818,0.698-1.334c0.198-0.131,0.39-0.268,0.588-0.4c0.119-0.079,0.818-0.42,0.94-0.506&#10;&#9;c0.316-0.099,0.635-0.186,0.95-0.288C747.572,372.698,747.599,372.686,747.646,372.669z M753.468,403.911&#10;&#9;c-9.258,0.036-16.785,7.255-16.901,16.76c-0.118,9.691,6.886,17.582,16.499,18.565c8.544,0.873,17.315-4.301,19.466-12.9&#10;&#9;c2.767-11.062-6.191-18.942-15.722-22.132C755.587,403.793,754.475,403.74,753.468,403.911z M756.225,424.989&#10;&#9;c-0.008,0.002-1.19,0.268-2.329,0.101c-2.17-0.319-3.092-2.226-3.084-4.068c0.005-1.233-0.373-0.497,0.361-1.851&#10;&#9;c-0.678,1.251,1.166-1.371,0.246-0.331c0.513-0.58,0.304-0.439,0.762-0.542c0.638-0.145,0.917-0.202,1.233-0.208&#10;&#9;c1.879,0.68,3.908,1.769,4.887,2.95c0.348,0.42,0.211,0.001,0.472,1.096c-0.079-0.332-0.115,0.451-0.081,0.681&#10;&#9;c-0.169,0.568-0.536,1.137-0.945,1.462C756.752,425.065,757.49,424.675,756.225,424.989z M932.535,581.567&#10;&#9;c-1.111-10.672,0.264-25.652-7.735-34.016c-1.063-1.112-2.232-1.72-3.409-1.988c-1.525-1.486-3.749-2.2-6.461-1.313&#10;&#9;c-28.983,9.479-59.25,15.567-88.617,23.871c-32.087,9.073-64.113,18.358-96.118,27.718c-30.724,8.986-61.302,18.763-92.457,26.162&#10;&#9;c-31.128,7.393-62.588,13.275-93.33,22.231c-1.246,0.363-2.214,0.968-2.977,1.703c-1.343,1.146-2.242,2.867-2.251,5.165&#10;&#9;c-0.13,32.476,1.149,64.943,0.756,97.406c-0.054,4.482,4.615,8.276,9.015,6.867c19.646-6.29,39.095-11.482,58.492-18.743&#10;&#9;c22.65-8.479,46.037-15.801,69.171-22.866c48.088-14.685,96.128-29.518,144.215-44.234c23.161-7.088,46.724-12.266,70.048-18.705&#10;&#9;c10.397-2.87,20.378-6.932,30.765-9.766c4.801-1.31,9.228-1.583,12.27-6.039c0.482-0.706,0.888-1.464,1.271-2.239&#10;&#9;c1.138-1.34,1.73-3.099,1.708-4.877C940.224,613.988,933.811,593.822,932.535,581.567z M906.323,609.913&#10;&#9;c-0.21-0.584-0.519-1.124-0.89-1.628c-0.25-16.091-1.287-32.006,4.103-47.437c2.037-0.617,4.066-1.255,6.092-1.9&#10;&#9;c2.486,4.422,1.901,13.177,2.249,17.345c0.538,6.462,1.4,12.826,2.289,19.254c0.843,6.098,1.751,12.216,2.027,18.376&#10;&#9;c0.006,0.117,0.107,1.292,0.238,2.868C917.167,613.981,911.712,610.888,906.323,609.913z M827.43,582.61&#10;&#9;c21.783-6.167,44.048-11.174,65.956-17.132c-3.426,15.337-2.209,31.099-2.153,46.95c0.001,0.279,0.054,0.546,0.087,0.817&#10;&#9;c-3.116,1.561-6.229,3.225-9.507,4.129c-8.132,2.242-16.5,3.87-24.701,5.865c-36.028,8.763-71.729,18.154-107.527,27.78&#10;&#9;c-1.769,0.476-3.527,0.961-5.294,1.438c-0.583-7.433-1.985-14.665-2.747-22.16c-0.77-7.571-0.485-15.216-0.346-22.823&#10;&#9;c16.832-4.916,33.675-9.797,50.527-14.646c-3.168,4.27-5.329,9.411-5.362,14.324c-8.4,2.391-16.797,4.771-25.287,6.777&#10;&#9;c-8.917,2.107-5.142,15.844,3.787,13.735c8.861-2.093,17.64-4.536,26.419-6.998c5.89,8.539,16.726,13.697,27.07,10.683&#10;&#9;c10.474-3.052,18.141-11.902,19.05-22.151c9.667-2.088,19.532-4.618,27.305-8.993c7.989-4.496,0.817-16.805-7.189-12.299&#10;&#9;c-5.892,3.316-13.832,3.998-20.314,5.894c-1.081,0.316-2.169,0.606-3.254,0.907c-2.909-4.71-7.358-8.315-12.422-10.408&#10;&#9;C823.498,583.74,825.462,583.167,827.43,582.61z M554.021,709.321c-0.246-17.605-0.562-35.211-0.571-52.821&#10;&#9;c27.402-7.667,55.315-13.156,83.022-19.591c-2.096,3.135-3.553,6.651-4.176,10.339c-11.584,2.817-23.111,5.775-34.772,8.563&#10;&#9;c-8.911,2.131-5.138,15.869,3.787,13.735c10.654-2.547,21.27-5.122,31.893-7.671c2.567,8.528,12.333,12.561,21.391,11.825&#10;&#9;c12.077-0.982,21.85-9.976,26.51-20.66c0.472-1.082,0.664-2.143,0.652-3.157c3.995-1.087,7.999-2.117,12.049-2.863&#10;&#9;c7.201-1.326,13.782-1.724,20.583-4.658c8.394-3.62,1.148-15.895-7.189-12.299c-7.465,3.22-16.851,2.944-24.78,5.007&#10;&#9;c-1.425,0.371-2.844,0.753-4.264,1.132c-2.19-3.037-4.838-5.825-7.83-7.973c18.929-5.254,37.732-10.992,56.565-16.562&#10;&#9;c-0.121,6.218-0.2,12.447,0.41,18.63c0.86,8.714,2.653,17.215,2.958,25.972c-27.948,7.631-55.702,15.505-83.462,24.186&#10;&#9;c-17.699,5.535-35.64,10.276-53.4,15.615c-7.998,2.404-16.019,4.736-24.013,7.149C564.254,704.768,559.148,707.357,554.021,709.321z&#10;&#9; M654.536,642.135c-1.72,0.361-3.417,0.768-5.129,1.145c1.932-2.482,4.592-4.383,7.655-4.915c2.108-0.366,4.058,0.452,5.786,1.844&#10;&#9;C660.09,640.892,657.325,641.549,654.536,642.135z M662.85,654.899c-1.796,1.699-3.928,3.075-6.585,3.991&#10;&#9;c-2.453,0.846-6.827,1.139-8.637-0.41C652.7,657.284,657.758,656.064,662.85,654.899z M820.695,612.787&#10;&#9;c0.307-0.074,0.642-0.142,0.953-0.215c-1.796,2.664-4.799,4.675-7.892,5.261c-2.404,0.455-4.818-0.207-6.899-1.487&#10;&#9;C811.454,615.102,816.062,613.899,820.695,612.787z M812.197,600.178c-3.384,0.811-6.743,1.71-10.101,2.612&#10;&#9;c1.296-2.622,3.671-4.974,6.478-5.922c3.389-1.144,6.971-0.218,9.765,1.839C816.293,599.2,814.245,599.688,812.197,600.178z&#10;&#9; M840.793,648.85c-21.248,5.858-42.211,12.691-63.15,19.558c-41.401,13.578-83.614,24.398-124.943,38.105&#10;&#9;c-18.759,6.222-37.701,11.97-56.131,19.119c-14,5.43-28.164,9.048-42.378,13.247c0.014-4.87,0.055-9.739,0.017-14.609&#10;&#9;c5.023-1.625,9.601-4.289,14.675-6.02c7.597-2.591,15.455-4.568,23.142-6.89c17.836-5.388,35.847-10.197,53.659-15.649&#10;&#9;c34.138-10.45,68.018-20.647,102.556-29.597c34.183-8.857,68.116-18.267,102.435-26.644c14.352-3.503,33.647-4.821,46.491-12.306&#10;&#9;c5.679-3.31,4.194-3.299,10.039-0.436c1.501,0.735,3.112,1.466,4.781,2.183c-3.348,1.092-6.618,2.448-9.94,3.598&#10;&#9;C882.072,639.422,861.144,643.24,840.793,648.85z M336.296,796.422c1.366,8.982-12.362,12.819-13.735,3.786&#10;&#9;c-2.471-16.253-3.842-32.499-3.93-48.944c-0.049-9.182,14.195-9.163,14.244,0C332.955,766.409,334.019,781.445,336.296,796.422z&#10;&#9; M363.937,772.635c1.189,6.264,3.082,12.634,2.756,19.064c-0.464,9.137-14.709,9.162-14.244,0c0.36-7.089-2.212-14.256-3.275-21.231&#10;&#9;c-1.379-9.052-1.812-18.145-1.871-27.29c-0.06-9.182,14.184-9.162,14.244,0C361.61,753.083,362.085,762.883,363.937,772.635z&#10;&#9; M385.071,739.502c0.251,14.997,3.383,29.823,2.205,44.845c-0.713,9.094-14.96,9.14-14.244,0&#10;&#9;c1.177-15.022-1.954-29.848-2.205-44.845C370.673,730.318,384.917,730.346,385.071,739.502z M410.84,779.155&#10;&#9;c1.197,9.075-13.063,8.957-14.244,0c-1.931-14.647-2.96-29.371-4.449-44.064c-0.925-9.127,13.328-9.032,14.244,0&#10;&#9;C407.879,749.784,408.908,764.508,410.84,779.155z M428.327,725.008c4.572,15.731,6.714,31.84,6.871,48.209&#10;&#9;c0.088,9.183-14.156,9.161-14.244,0c-0.145-15.148-2.131-29.863-6.362-44.422C412.025,719.961,425.774,716.224,428.327,725.008z&#10;&#9; M454.911,724.064c0.308,14.332,3.409,28.364,4.411,42.639c0.643,9.163-13.606,9.093-14.244,0&#10;&#9;c-1.002-14.278-4.103-28.302-4.411-42.639C440.47,714.879,454.714,714.911,454.911,724.064z M320.718,730.703&#10;&#9;c5.592-0.889,10.343-4.041,15.383-6.413c6.091-2.866,12.54-5.409,18.968-7.413c2.705-0.843,5.596-3.747,5.228-6.868&#10;&#9;c-1.194-10.138-0.066-34.384-15.625-31.2c-10.137,2.075-20.056,5.63-30.003,8.428c-1.189,0.334-2.131,0.885-2.881,1.562&#10;&#9;c-1.424,1.143-2.386,2.9-2.348,5.305c0.156,9.957,1.726,19.796,2.262,29.73C311.974,728.837,316.015,731.451,320.718,730.703z&#10;&#9; M332.504,710.366c-2.491,1.064-4.894,2.426-7.344,3.654c-0.469-4.875-0.945-9.747-1.231-14.635&#10;&#9;c6.452-1.906,12.892-3.891,19.39-5.603c0.523,1.789,1.126,3.57,1.252,4.332c0.384,2.325,0.667,4.667,0.932,7.01&#10;&#9;C341.115,706.733,336.781,708.54,332.504,710.366z M1149.048,822.724c-3.893-12.514-20.333-20.189-29.673-28.155&#10;&#9;c-28.444-24.26-55.363-50.08-80.477-77.763c-8.774-9.672-18.422-22.476-30.617-28c-11.263-5.102-24.518-1.749-35.694,1.955&#10;&#9;c-29.122,9.653-57.288,21.64-86.799,30.228c-48.691,14.169-97.757,27.055-146.668,40.434&#10;&#9;c-54.348,14.866-108.778,29.591-162.065,47.965c-41.793,14.411-83.308,29.614-124.708,45.117&#10;&#9;c-18.891,7.074-37.645,14.822-56.717,21.39c-11.543,3.975-23.562,6.009-33.743,12.803c-0.897,0.348-1.774,0.922-2.589,1.786&#10;&#9;c-0.806,0.628-1.366,1.315-1.768,2.024c-11.282,13.47-13.468,31.464-20.049,47.375c-0.047,0.114-0.065,0.234-0.103,0.35&#10;&#9;c-40.908,12.735-80.806,37.629-123.809,24.458c-14.153-4.335-18.047-12.772-16.337-21.198c19.365,5.298,40.118,0.305,49.734-21.302&#10;&#9;c1.308-2.939,1.297-6.22-1.113-8.631c-16.574-16.573-42.93-6.198-56.113,11.679c-4.337-2.549-8.333-5.79-11.651-9.519&#10;&#9;c-5.081-5.712-7.912-12.045-7.015-18.118c23.44,7.502,49.496,3.701,53.044-24.197c0.28-2.198-1.51-5.261-3.527-6.15&#10;&#9;c-17.893-7.879-42.94-1.451-55.862,12.554c-7.464-3.975-15.734-10.06-18.678-18.35c-0.844-2.376-1.145-4.63-1.052-6.758&#10;&#9;c2.738,0.552,5.485,1.061,8.249,1.472c12.676,1.886,45.298,6.796,48.07-11.974c3.557-24.084-35.723-25.096-49.612-18.851&#10;&#9;c-6.597,2.966-11.742,7.411-15.272,12.663c-2.198-0.62-4.388-1.267-6.559-1.964c-12.024-3.86-32.633-8.541-34.37-23.098&#10;&#9;c-1.078-9.037,0.848-15.429,5.323-20.076c6.434,2.884,12.98,5.161,19.089,6.835c9.988,2.737,22.517,4.908,31.897-0.96&#10;&#9;c6.943-4.344,11.347-12.205,6.44-19.7c-11.2-17.106-42.101-11.006-56.807-3.947c-0.665,0.319-1.283,0.68-1.918,1.026&#10;&#9;c-10.312-5.815-27.193-17.877-23.601-31.024c0.179-0.654,0.419-1.279,0.689-1.89c11.79,6.811,25.934,11.789,37.974,9.114&#10;&#9;c13.726-3.049,19.776-20.377,9.927-30.997c-10.198-10.996-29.958-7.208-41.826-1.548c-2.855,1.362-5.535,2.986-7.97,4.832&#10;&#9;c-8.898-6.94-15.178-16.108-8.597-25.438c2.31,2.5,4.956,4.83,8.04,6.913c12.833,8.667,35.538,15.349,41.617-4.483&#10;&#9;c4.703-15.341-8.04-25.295-21.949-26.851c-8.53-0.955-16.593,0.718-23.423,4.149c-2.772-8.098-2.414-17.48-0.371-27.246&#10;&#9;c1.873-8.954,4.567-16.931,12.02-22.628c3.882-2.968,9.832-7.185,15.384-8.083c-0.074,0.988-0.146,1.982-0.22,2.969&#10;&#9;c-1.223,16.311-0.471,26.886,12.05,38.123c10.153,9.113,19.854,18.197,29.299,28.074c22.736,23.777,45.064,47.94,67.752,71.762&#10;&#9;c9.742,10.23,20.068,20.016,28.976,30.992c13.366,16.47,24.584,35.292,41.307,48.712c1.022,0.82,2.107,1.281,3.195,1.508&#10;&#9;c8.087,7.601,22.598,5.913,35.898,3.875c26.955-4.131,54.012-11.679,80.269-18.932c42.777-11.816,84.465-27.197,127.323-38.742&#10;&#9;c42.718-11.508,86.033-20.659,128.707-32.336c42.492-11.626,83.178-28.405,125.668-39.983&#10;&#9;c43.014-11.721,85.236-25.564,127.715-39.078c19.313-6.144,42.151-10.49,59.858-20.589c10.089-5.754,11.467-15.169,12.682-25.899&#10;&#9;c2.521-22.265,3.442-44.507,4.348-66.876c0.763-18.82,1.12-38.355-5.945-56.138c-0.587-1.476-1.505-2.56-2.584-3.332&#10;&#9;c-7.139-23.748-34.241-39.973-52.906-53.592c-30.845-22.506-57.449-51.664-80.666-81.844c-0.283-4.053-0.591-8.104-0.941-12.15&#10;&#9;c-4.666-53.917-14.902-107.147-25.296-160.194c-2.513-12.821-4.979-25.663-8.049-38.365c-2.246-9.294-3.702-22.602-10.354-30.056&#10;&#9;c-5.887-6.597-13.928-5.718-22.006-5.236c-14.529,0.867-29.047,2.105-43.56,3.206c-59.617,4.523-119.207,9.843-178.385,18.493&#10;&#9;c-30.529,4.462-60.931,9.835-91.062,16.485c-15.064,3.325-30.061,6.963-44.96,10.966c-8.032,2.158-17.742,3.8-25.476,8.059&#10;&#9;c-0.912-0.084-1.915,0.042-2.995,0.432c-22.827,8.228-46.903,9.644-70.702,13.286c-11.592,1.774-22.837,4.632-34.231,7.35&#10;&#9;c-8.9,2.123-19.538,3.425-27.66,7.994c-12.619,7.098-9.398,24.447-9.412,36.576c-0.03,26.114-0.337,52.268,0.512,78.37&#10;&#9;c0.856,26.353,2.711,52.663,3.521,79.018c0.302,9.834-0.249,19.786-0.703,29.726c-21.595,5.782-42.957,12.67-64.257,19.425&#10;&#9;c-19.581,6.21-45.288,10.825-61.996,23.579c-1.152,0.879-2.118,1.829-2.918,2.838c-2.68,0.773-4.92,2.938-4.981,6.539&#10;&#9;c-0.421,24.951-7.518,48.768-10.997,73.317c-2.208,15.58-3.54,31.37-4.729,47.124c-17.657,0.214-34.992,17.712-40.027,33.018&#10;&#9;c-5.326,16.19-6.567,33.951,0.107,48.477c-11.293,12.594-13.082,31.591,4.436,45.958c0.644,0.528,1.325,1.06,2.011,1.593&#10;&#9;c-3.866,6.867-4.912,15.005-1.511,23.718c4.373,11.2,13.504,20.026,24.219,26.768c-7.595,9.745-9.55,22.895-5.27,36.343&#10;&#9;c3.58,11.249,14.572,15.814,24.566,20.24c7.874,3.487,15.988,6.452,24.266,8.837c-1.057,7.729,0.738,15.975,5.94,23.485&#10;&#9;c4.518,6.521,11.807,12.46,20.294,17.023c-2.403,7.612-1.581,16.334,4.126,25.626c5.135,8.36,12.813,15.36,21.568,20.266&#10;&#9;c-2.274,7.23-2.248,14.876,1.178,22.06c11.818,24.782,50.942,24.103,73.382,20.617c29.883-4.641,57.441-20.059,86.494-27.992&#10;&#9;c9.979,11.449,19.285,23.25,30.038,34.296c12.888,13.239,25.793,26.473,38.144,40.218c11.731,13.054,22.025,27.089,33.147,40.607&#10;&#9;c6.206,7.543,11.482,9.998,21.282,8.896c74.18-8.339,145.018-35.986,215.073-60.196c108.952-37.653,219.363-70.64,329.667-103.992&#10;&#9;c15.714-4.751,31.587-9.284,47.016-14.916c15.146-5.529,29.593-12.753,44.383-19.127c8.638-3.722,17.381-7.044,26.381-9.784&#10;&#9;c8.49-2.586,8.65-3.869,12.272-12.539C1145.854,845.988,1152.476,833.743,1149.048,822.724z M968.198,560.138&#10;&#9;c-0.614,18.861-1.173,37.805-3.018,56.583c-1.077,10.969,1.09,24.741-10.348,29.752c-18.552,8.127-39.154,13.218-58.431,19.332&#10;&#9;c-37.403,11.864-74.519,24.476-112.413,34.702c-37.433,10.102-73.258,24.135-110.292,35.383&#10;&#9;c-75.471,22.923-152.825,38.037-228.032,62.146c-31.075,9.962-62.34,18.589-93.962,26.591c-10.061,2.547-20.153,5.007-30.35,6.958&#10;&#9;c-5.413,1.036-27.137,7.009-32.265,1.994c-3.275-3.203-1.366-15.695-1.168-19.5c0.345-6.631,0.823-13.156,0.846-19.797&#10;&#9;c0.061-18.031-0.287-36.079,0.295-54.104c0.424-13.147,1.096-26.288,1.826-39.421c0.296-5.327,0.604-10.653,0.939-15.978&#10;&#9;c0.016-0.264,0.064-0.751,0.124-1.347c14.951,0.724,30.301-7.77,44.154-11.971c93.401-28.326,190.776-43.22,285.452-66.656&#10;&#9;c58.46-14.472,117.014-28.737,175.226-44.181c55.814-14.807,110.988-32.287,168.052-41.739&#10;&#9;C968.65,532.238,968.651,546.236,968.198,560.138z M424.608,185.107c12.287-3.227,24.638-6.212,37.036-8.981&#10;&#9;c23.022-5.141,46.21-9.53,69.489-13.33c47.851-7.812,96.078-13.066,144.364-17.308c23.586-2.072,47.193-3.895,70.805-5.64&#10;&#9;c9.272-0.685,23.714-4.607,32.661-2.377c11.818,2.945,13.368,25.615,15.509,35.373c9.945,45.321,18.517,91.248,25.038,137.188&#10;&#9;c6.866,48.371,10.362,97.5,6.237,146.281c-0.666,7.865-1.705,13.049-9.164,16.381c-4.694,2.097-11.26,2.401-16.306,3.473&#10;&#9;c-11.787,2.506-23.577,5.002-35.374,7.463c-23.608,4.924-47.244,9.712-70.943,14.176c-48.491,9.133-97.269,16.934-146.405,21.636&#10;&#9;c-23.918,2.289-47.907,3.858-71.926,4.513c-11.794,0.322-27.303,3.705-33.481-9.193c-4.53-9.459-4.075-23.876-5.631-34.214&#10;&#9;c-7.963-52.883-16.87-105.619-26.145-158.287c-4.41-25.041-8.382-50.235-13.469-75.147c-3.062-14.997-11.88-36.994-3.306-51.32&#10;&#9;C400.605,189.013,415.554,187.485,424.608,185.107z M260.004,223.423c2.141-2.993,10.247-3.916,13.399-4.745&#10;&#9;c12.968-3.411,26.147-6.798,39.343-9.186c21.481-3.887,43.315-5.035,64.411-10.349c-2.258,10.693-0.129,22.584,1.895,32.981&#10;&#9;c4.344,22.311,8.81,44.559,12.802,66.951c9.694,54.369,19.094,108.794,27.575,163.366c2.126,13.679,4.162,27.372,6.195,41.065&#10;&#9;c1.001,6.743,1.829,13.916,4.63,20.21c-17.298,2.509-38.085-1.333-53.772-4.254c-21.744-4.048-43.291-12.515-64.266-19.495&#10;&#9;c-15.436-5.137-44.281-12.861-48.962-30.803c-2.543-9.749-0.505-21.237,0.097-31.131c0.692-11.383,0.352-22.784,0.002-34.176&#10;&#9;c-1.724-56.139-4.338-111.95-4.007-168.152C259.365,232.758,258.194,225.953,260.004,223.423z M134.73,485.361&#10;&#9;c3.574-1.595,7.152-3.085,10.83-4.442c12.987-4.793,26.192-9.021,39.38-13.224c20.879-6.654,41.833-13.386,62.984-19.19&#10;&#9;c-0.064,5.281,0.027,10.54,0.433,15.756c2.513,32.247,39.393,43.076,65.837,51.292c23.226,7.216,46.149,16.562,70.447,19.379&#10;&#9;c17.942,2.08,39.062,6.204,56.947,0.944c3.251,1.538,6.871,2.337,10.729,2.604c14.052,0.972,28.657-0.339,42.712-1.002&#10;&#9;c54.222-2.558,108.168-9.511,161.659-18.572c54.53-9.237,110.093-18.703,163.68-32.477c21.378-5.495,19.532-24.948,20.591-43.842&#10;&#9;c0.908-16.213,0.99-32.456,0.455-48.682c17.986,22.088,37.763,43.495,59.99,60.751c17.419,13.524,47.841,28.765,57.342,50.918&#10;&#9;c-45.413,7.695-89.711,20.303-134.045,32.65c-47.12,13.122-94.636,24.8-142.079,36.691&#10;&#9;c-90.318,22.639-181.328,41.403-271.901,62.828c-21.643,5.12-43.308,10.193-64.756,16.089c-9.175,2.523-18.259,5.196-27.193,8.481&#10;&#9;c-10.487,3.855-22.794,10.036-33.683,4.732c-9.745-4.746-18.295-14.998-26.069-22.334c-10.508-9.917-20.849-20.015-31.048-30.25&#10;&#9;c-15.808-15.863-30.138-32.525-44.394-49.776c-17.383-21.035-37.848-42.73-49.603-67.618c-0.647-1.37-4.017-7.449-4.464-9.531&#10;&#9;C130.166,488.156,134.046,485.666,134.73,485.361z M118.728,552.312c2.301-12.964,5.113-25.797,7.139-38.744&#10;&#9;c5.524,8.473,12.043,16.235,15.736,21.142c16.912,22.476,34.807,44.467,53.238,65.72c18.656,21.513,39.899,41.282,60.783,60.595&#10;&#9;c6.676,6.174,13.787,13.833,21.982,18.34c-0.372,4.239-0.226,8.685-0.463,12.695c-0.822,13.925-1.561,27.858-2.098,41.798&#10;&#9;c-0.565,14.676-0.488,29.329-0.5,44.015c-0.011,13.272-1.462,27.1-1.345,40.554c-8.998-10.147-16.703-21.523-25.072-32.156&#10;&#9;c-8.462-10.751-18.131-20.25-27.573-30.109c-21.908-22.875-43.414-46.131-65.224-69.099c-8.061-8.489-15.975-17.262-24.507-25.285&#10;&#9;c-6.007-5.649-16.745-11.331-19.429-19.65c-2.24-6.942-0.023-17.336,0.618-24.368C114.004,595.934,114.892,573.921,118.728,552.312z&#10;&#9; M95.814,689.496c2.62,0.798,6.072,1.864,6.72,4.923c2.231,10.525-12.824,4.141-16.141,2.399c-3.473-1.824-6.347-3.93-8.713-6.265&#10;&#9;C83.529,688.373,90.379,687.841,95.814,689.496z M97.384,729.653c4.504-1.011,16.636-3.031,17.689,3.68&#10;&#9;c1.62,10.327-18.384,3.068-22.598,1.386c-1.345-0.537-2.806-1.176-4.332-1.906C91.249,731.345,94.503,730.299,97.384,729.653z&#10;&#9; M135.184,782.79c4.506,0.737,16.682,2.027,5.748,5.113c-6.888,1.944-15.785-0.196-24.049-3.419c0.216-0.06,0.417-0.126,0.635-0.184&#10;&#9;C123.302,782.757,129.219,781.814,135.184,782.79z M166.035,835.926c4.884-0.698,14.046-0.766,17.875,3.324&#10;&#9;c5.245,5.603-6.388,4.124-10.61,4.172c-7.052,0.079-14.065-0.588-20.996-1.779C156.139,838.646,161.048,836.639,166.035,835.926z&#10;&#9; M208.637,878.053c-4.304,10.07-17.667,10.051-29.278,7.194C187.192,879.385,198.825,875.993,208.637,878.053z M231.427,920.679&#10;&#9;c-6.704,9.361-17.046,11.942-27.42,10.016C211.338,922.334,222.834,916.921,231.427,920.679z M405.358,887.408&#10;&#9;c16.077-6.028,32.11-12.174,48.188-18.2c34.496-12.929,69.068-25.659,103.815-37.901c46.354-16.331,93.115-30.522,140.448-43.715&#10;&#9;c49.133-13.694,98.418-26.837,147.582-40.417c18.709-5.168,37.434-10.32,56.011-15.947c15.917-4.821,31.494-10.592,47.065-16.415&#10;&#9;c13.714-5.129,29.659-13.648,44.541-14.253c17.152-0.697,31.907,22.083,42.461,33.713c12.511,13.786,25.821,26.836,39.403,39.562&#10;&#9;c13.725,12.86,27.753,25.538,42.331,37.429c3.325,2.712,7.182,5.097,10.442,7.813c-36.762,19.403-76.385,31.532-116.593,41.929&#10;&#9;c-44.481,11.502-89.036,22.586-133.282,34.987c-88.032,24.673-174.468,54.344-262.069,80.412&#10;&#9;c-46.603,13.868-93.624,26.268-141.32,35.755c-17.971-22.284-37.957-42.759-57.136-63.991&#10;&#9;c-9.646-10.679-19.517-21.191-29.006-32.008c-5.243-5.978-9.917-12.444-15.84-17.61C381.95,892.811,395.198,891.217,405.358,887.408&#10;&#9;z M442.201,1039.84c-5.795-7.188-11.813-14.193-17.963-21.08c-12.308-13.784-25.175-27.052-38.063-40.29&#10;&#9;c-6.438-6.613-13.033-13.111-19.297-19.891c-2.761-2.989-5.217-6.193-7.641-9.419c3.868-0.633,7.762-1.136,11.712-1.368&#10;&#9;c9.111-0.534,9.172-14.781,0-14.244c-5.691,0.333-11.34,1.167-16.962,2.331c2.801-8.9,4.946-18.391,9.24-26.54&#10;&#9;c7.781,6.331,13.841,15.74,20.385,22.93c9.072,9.967,18.1,19.972,27.165,29.945c17.26,18.987,35.048,37.451,51.31,57.302&#10;&#9;c-0.62,0.462-1.208,1.011-1.716,1.735c-3.962,5.652-4.925,14.593-6.097,21.187c-0.663,3.727-1.402,7.642-1.911,11.582&#10;&#9;C448.783,1049.444,445.561,1044.008,442.201,1039.84z M1134.573,834.643c-1.068,6.754-4.529,13.331-7.421,19.716&#10;&#9;c-26.501,7.762-50.467,21.773-76.525,30.755c-15.604,5.379-31.478,10.025-47.278,14.786&#10;&#9;c-39.051,11.766-78.284,22.942-117.261,34.954c-59.512,18.34-118.788,37.947-177.914,57.506&#10;&#9;c-66.46,21.984-131.82,48.287-200.492,62.835c-9.515,2.016-28.907,8.508-41.66,7.231c0.046-5.431,1.058-10.974,1.987-16.198&#10;&#9;c0.951-5.351,1.448-13.2,4.661-17.784c0.38-0.542,0.645-1.08,0.851-1.612c88.884-17.311,175.027-45.293,261.165-72.776&#10;&#9;c89.255-28.479,179.217-53.7,270.023-76.725c44.767-11.351,89.135-24.269,130.038-45.894&#10;&#9;C1134.784,832.449,1134.753,833.503,1134.573,834.643z M433.923,907.644c6.784,24.793,27.698,43.999,46.871,59.691&#10;&#9;c16.657,13.633,31.025,26.26,53.612,20.17c31.14-8.397,61.65-21.404,92.336-31.46c32.35-10.601,64.797-20.898,97.204-31.321&#10;&#9;c63.325-20.369,126.024-42.768,189.647-62.192c29.84-9.11,60.276-15.967,90.288-24.448c14.834-4.192,29.268-9.246,43.819-14.282&#10;&#9;c6.505-2.251,18.347-1.848,21.73-9.026c6.115-12.974-18.806-29.191-26.721-35.674c-9.944-8.145-20.533-14.797-31.611-21.299&#10;&#9;c-7.994-4.692-16.12-9.284-23.342-15.135c-5.404-4.379-9.772-9.668-15.525-13.624c-0.597-0.411-1.189-0.678-1.774-0.882&#10;&#9;c-0.178-0.066-0.363-0.113-0.551-0.16c-0.263-0.066-0.522-0.122-0.779-0.151c-0.125-0.012-0.255-0.014-0.383-0.018&#10;&#9;c-0.367-0.015-0.724,0-1.074,0.054c-0.099,0.014-0.201,0.038-0.302,0.058c-0.275,0.059-0.544,0.127-0.805,0.225&#10;&#9;c-0.187,0.058-0.363,0.081-0.555,0.156c-43.701,17.074-88.979,28.478-133.367,43.479c-43.756,14.787-86.836,31.501-130.659,46.095&#10;&#9;c-44.283,14.747-89.615,26.049-134.337,39.368c-22.353,6.656-44.837,12.939-66.89,20.546c-20.411,7.04-40.918,15.814-61.859,21.071&#10;&#9;c-2.503,0.628-3.971,2.181-4.634,4.021C433.633,904.23,433.424,905.821,433.923,907.644z M466.8,905.217&#10;&#9;c0.125,0.08,0.22,0.175,0.354,0.251c2.378,1.356,4.623,3.026,6.77,4.905c-0.591,0.203-1.214,0.377-1.8,0.584&#10;&#9;c-5.816,2.062-12.8,3.994-18.395,7.406c-1.415-2.516-2.632-5.103-3.707-7.734C455.641,909.007,461.231,907.162,466.8,905.217z&#10;&#9; M494.582,895.078c3.337,2.102,6.645,4.532,9.91,7.191c-5.145,1.01-10.306,2.209-15.436,3.558c-1.992-2.262-4.066-4.42-6.258-6.407&#10;&#9;C486.734,897.961,490.662,896.501,494.582,895.078z M546.347,968.319c-3.716-3.081-7.311-6.342-10.807-9.739&#10;&#9;c6.585-1.799,13.133-3.712,19.458-6.274c2.979,3.303,5.965,6.598,8.998,9.842C558.11,964.195,552.228,966.254,546.347,968.319z&#10;&#9; M524.342,947.051c-3.211-3.467-6.374-6.976-9.503-10.488c6.939-2.396,13.972-4.181,21.146-4.678&#10;&#9;c2.974,2.977,5.876,6.029,8.739,9.122C538.019,943.317,531.168,945.154,524.342,947.051z M493.619,958.231&#10;&#9;c-0.471,0.25-0.878,0.533-1.248,0.832c-3.68-2.844-7.382-5.843-11.018-8.974c6.447-2.397,12.908-5.268,19.425-8.029&#10;&#9;c2.872,3.141,5.736,6.319,8.613,9.503C504.005,953.399,498.715,955.52,493.619,958.231z M484.298,922.139&#10;&#9;c0.124-0.032,0.248-0.066,0.373-0.098c2.33,2.929,4.586,5.935,6.824,8.856c-6.967,2.888-13.925,5.716-20.985,7.87&#10;&#9;c-0.309,0.094-0.567,0.231-0.845,0.352c-2.822-2.918-5.491-5.942-7.97-9.066C467.96,925.97,478.19,923.724,484.298,922.139z&#10;&#9; M504.943,925.437c-1.978-2.292-3.911-4.708-5.841-7.174c5.848-1.485,11.725-2.851,17.649-3.807c0.38-0.061,0.704-0.173,1.038-0.276&#10;&#9;c1.878,1.801,3.729,3.6,5.55,5.383C517.098,921.016,510.99,923.102,504.943,925.437z M505.016,968.468&#10;&#9;c4.835-2.219,9.836-3.977,14.914-5.523c3.457,3.61,6.998,7.124,10.664,10.48C521.645,975.567,514.131,974.973,505.016,968.468z&#10;&#9; M578.809,957.054c-13.604-13.979-25.968-29.354-40.374-42.534c-8.679-7.94-17.741-17.382-27.379-25.099&#10;&#9;c9.83-3.259,19.714-6.348,29.637-9.315c0.137,0.05,0.248,0.121,0.392,0.166c5.302,1.654,8.948,9.689,12.364,13.697&#10;&#9;c5.464,6.412,11.315,12.608,17.003,18.822c11.491,12.555,24.791,23.089,37.241,34.603c-7.947,2.633-15.904,5.239-23.835,7.924&#10;&#9;C582.172,955.888,580.494,956.479,578.809,957.054z M610.481,859.791c2.178,3.36,4.599,6.514,7.156,9.557&#10;&#9;c-0.94,0.299-1.881,0.591-2.821,0.892c-4.502,1.44-8.982,2.943-13.474,4.413c-2.934-3.244-5.834-6.518-8.719-9.809&#10;&#9;C598.572,863.145,604.524,861.461,610.481,859.791z M643.962,850.381c2.322,2.777,4.574,5.609,6.775,8.48&#10;&#9;c-6.151,1.948-12.296,3.914-18.449,5.853c-2.587-2.883-5.046-5.865-7.315-8.985C631.306,853.958,637.635,852.175,643.962,850.381z&#10;&#9; M683.44,838.758c1.914,2.534,3.874,5.029,5.89,7.478c-7.624,2.592-15.255,5.161-22.916,7.64c-0.423,0.137-0.848,0.268-1.271,0.404&#10;&#9;c-2.116-2.718-4.23-5.438-6.356-8.148C667.025,843.742,675.244,841.286,683.44,838.758z M745.245,817.95&#10;&#9;c1.729,2.298,3.506,4.551,5.34,6.753c-6.693,2.392-13.392,4.77-20.088,7.155c-1.436-2.371-2.717-4.824-3.798-7.375&#10;&#9;C732.89,822.329,739.071,820.15,745.245,817.95z M805.594,796.267c2.074,2.233,4.163,4.456,6.264,6.669&#10;&#9;c-7.015,2.486-14.028,4.978-21.044,7.463c-2.461-1.979-4.816-4.084-7.086-6.295C791.012,801.477,798.298,798.86,805.594,796.267z&#10;&#9; M877.914,772.348c1.529,1.837,3.111,3.658,4.753,5.461c-0.863,0.309-1.726,0.627-2.589,0.934c-3.839,1.365-7.681,2.722-11.52,4.086&#10;&#9;c-2.347-1.836-4.731-3.624-7.149-5.368C866.907,775.738,872.408,774.03,877.914,772.348z M911.587,762.014&#10;&#9;c1.212,1.345,2.476,2.64,3.78,3.897c-6.006,2.177-12,4.372-17.988,6.565c-1.544-1.547-3.05-3.112-4.521-4.695&#10;&#9;C899.107,765.878,905.35,763.955,911.587,762.014z M939.59,752.969c1.112,1.125,2.235,2.237,3.366,3.341&#10;&#9;c-4.317,1.418-8.622,2.878-12.916,4.375c-1.273-1.088-2.503-2.206-3.693-3.352C930.77,755.905,935.186,754.457,939.59,752.969z&#10;&#9; M967.292,742.997c1.897,1.432,3.726,2.95,5.517,4.518c-4.801,1.23-9.584,2.536-14.341,3.941c-1.298-1.216-2.547-2.491-3.827-3.728&#10;&#9;C958.872,746.201,963.087,744.617,967.292,742.997z M989.568,761.423c6.549,4.276,13.398,8.079,20.15,12.035&#10;&#9;c-6.252,2.405-12.525,4.771-18.834,7.088c-6.59-6.03-13.314-11.88-19.98-17.791c5.038-1.367,10.097-2.644,15.185-3.794&#10;&#9;C987.218,759.815,988.372,760.642,989.568,761.423z M984.628,828.562c-4.373,1.163-8.749,2.314-13.128,3.451&#10;&#9;c-0.666-0.607-1.463-1.129-2.44-1.499c-9.977-3.783-19.064-10.305-27.544-17.517c0.332-0.115,0.666-0.224,0.997-0.34&#10;&#9;c6.203-2.179,12.434-4.351,18.668-6.528C968.517,814.192,975.837,822.121,984.628,828.562z M922.608,841.34&#10;&#9;c-8.572-5.99-19.419-10.181-29.629-13.599c11.027-3.391,22.183-6.441,33.219-9.792c8.01,6.988,16.102,13.82,25.079,19.309&#10;&#9;c-8.743,2.281-17.472,4.616-26.169,7.07C924.603,843.219,923.813,842.182,922.608,841.34z M933.741,800.651&#10;&#9;c-1.446,0.494-2.906,0.944-4.358,1.42c-1.844-1.718-3.665-3.421-5.461-5.081c-4.862-4.492-10.004-9.023-15.1-13.656&#10;&#9;c6.335-2.326,12.683-4.626,19.047-6.882c7.781,5.919,15.829,11.593,22.708,18.413C944.958,796.804,939.339,798.74,933.741,800.651z&#10;&#9; M961.57,785.662c-5.223-5.386-11.578-10.008-17.967-14.623c3.748-1.246,7.511-2.437,11.28-3.608&#10;&#9;c6.948,6.237,14.021,12.332,20.957,18.589c-3.488,1.244-6.98,2.46-10.472,3.685C964.115,788.346,962.859,786.99,961.57,785.662z&#10;&#9; M893.565,788.935c6.512,6.245,13.356,12.264,20.04,18.063c-4.158,1.237-8.319,2.459-12.48,3.681&#10;&#9;c-6.611-5.75-13.14-11.609-19.783-17.32C885.416,791.899,889.49,790.427,893.565,788.935z M885.109,815.536&#10;&#9;c-8.687,2.732-17.3,5.674-25.725,9.163c-6.587-5.931-14.177-10.501-21.022-16.082c9.164-3.25,18.33-6.494,27.492-9.748&#10;&#9;C872.392,804.268,878.742,809.909,885.109,815.536z M826.509,817.22c5.434,4.724,11.51,8.607,17.22,12.957&#10;&#9;c-6.812,1.773-13.64,3.656-20.47,5.657c-0.096-0.061-0.165-0.134-0.266-0.192c-7.055-4.101-12.832-9.638-19.013-14.835&#10;&#9;c6.355-2.251,12.709-4.507,19.064-6.76C824.194,815.111,825.327,816.192,826.509,817.22z M791.941,845.748&#10;&#9;c-5.563-4.806-11.063-9.733-16.348-14.875c4.236-1.5,8.47-3.005,12.706-4.505c1.752,1.362,3.497,2.736,5.205,4.162&#10;&#9;c4.226,3.529,8.3,7.169,12.564,10.571C801.344,842.609,796.631,844.151,791.941,845.748z M770.989,811.54&#10;&#9;c1.396,1.527,2.871,2.954,4.383,4.336c-1.328,0.47-2.655,0.942-3.982,1.412c-2.189,0.775-4.375,1.561-6.563,2.339&#10;&#9;c-1.927-2.18-3.816-4.392-5.621-6.674c3.448-1.241,6.896-2.483,10.343-3.729C769.862,810.018,770.312,810.8,770.989,811.54z&#10;&#9; M760.848,836.112c5.04,5.212,10.317,10.201,15.738,15.048c-6.837,2.484-13.619,5.036-20.295,7.667&#10;&#9;c-0.414,0.163-0.838,0.318-1.254,0.48c-0.152-0.164-0.269-0.335-0.443-0.495c-5.148-4.711-10.452-9.676-15.217-15.068&#10;&#9;C746.533,841.196,753.691,838.656,760.848,836.112z M740.239,864.89c-4.392,1.613-8.8,3.219-13.223,4.821&#10;&#9;c-0.116-0.081-0.204-0.174-0.328-0.251c-5.981-3.709-9.7-10.559-13.768-16.373c4.081-1.428,8.16-2.864,12.237-4.305&#10;&#9;C729.742,854.526,734.924,859.851,740.239,864.89z M701.317,861.151c3.507,4.736,6.67,9.773,10.581,14.102&#10;&#9;c-7.962,2.978-15.857,6.097-23.602,9.455c-3.792-6.743-8.515-12.802-13.503-18.677c8.026-2.643,16.04-5.325,24.031-8.074&#10;&#9;C699.655,859.022,700.513,860.065,701.317,861.151z M653.885,932.285c-3.466-4.284-7.233-8.312-11.127-12.237&#10;&#9;c2.91-1.108,5.8-2.219,8.669-3.305c2.541,4.958,8.1,8.519,12.935,12.15C660.866,930.016,657.378,931.158,653.885,932.285z&#10;&#9; M622.174,898.46c-3.386-4.172-6.909-8.228-10.473-12.249c5.481-1.772,10.97-3.513,16.461-5.25c0.749,0.794,1.499,1.589,2.246,2.387&#10;&#9;c3.906,4.17,7.88,8.29,11.752,12.488c2.128,2.306,3.85,4.74,5.428,7.234c-5.133,1.983-10.398,4.087-15.734,6.069&#10;&#9;C628.489,905.702,625.205,902.193,622.174,898.46z M661.323,897.821c-1.22-2.129-2.48-4.235-3.977-6.207&#10;&#9;c-3.57-4.706-8.005-8.724-12.015-13.045c-0.732-0.789-1.476-1.571-2.219-2.354c5.69-1.791,11.379-3.582,17.062-5.393&#10;&#9;c5.44,6.432,10.824,12.672,15.11,19.926c-2.084,1.027-4.188,2.025-6.234,3.109C666.914,894.987,664.115,896.279,661.323,897.821z&#10;&#9; M609.387,905.034c2.541,3.062,5.252,6.011,8.038,8.911c-7.025,2.004-14.062,3.409-20.964,3.615&#10;&#9;c-0.045,0.001-0.081,0.014-0.125,0.016c-6.528-6.001-12.945-12.134-19.074-18.652c6.761-2.019,13.546-4.898,20.137-7.557&#10;&#9;C601.472,895.856,605.516,900.37,609.387,905.034z M623.011,942.301c-4.219-4.134-8.518-8.147-12.846-12.107&#10;&#9;c6.171-1.197,12.309-2.954,18.388-4.993c3.795,3.826,7.525,7.691,10.974,11.734C634.021,938.722,628.512,940.499,623.011,942.301z&#10;&#9; M679.443,924.051c-3.448-3.089-8.275-7.074-10.96-9.691c0.565-1.266,0.669-2.711,0.099-4.227c3.174-1.93,8.906-4.654,9.652-5.035&#10;&#9;c7.148-3.654,14.654-6.592,22.134-9.48c23.884-9.221,47.79-19.051,71.905-27.584c23.512-8.319,47.541-16.207,71.529-23.054&#10;&#9;c3.058-0.873,6.385-1.908,9.838-2.901c1.019-0.011,2.084-0.233,3.171-0.753c0.228-0.109,0.46-0.208,0.689-0.316&#10;&#9;c8.354-2.205,17.168-3.739,24.697-1.849c8.341,2.094,17.922,5.686,26.077,10.113c-53.456,16.371-106.159,35.106-159.316,52.405&#10;&#9;C725.811,909.212,702.623,916.619,679.443,924.051z M1002.505,823.651c-0.559-0.751-1.328-1.426-2.337-1.977&#10;&#9;c-9.665-5.279-17.265-12.741-24.521-20.639c3.914-1.381,7.82-2.769,11.727-4.17c8.313,8.313,15.911,17.049,25.458,23.747&#10;&#9;C1009.398,821.654,1005.956,822.668,1002.505,823.651z M1049.404,803.876c1.205,1.192,2.39,2.62,3.654,3.803&#10;&#9;c-0.279,0.015-0.581,0.025-0.929,0.024c-1.085-0.005-2.516,0.435-3.572,0.726c-6.308,1.739-12.427,4.531-18.614,6.678&#10;&#9;c-0.58-0.866-1.402-1.649-2.574-2.255c-10.084-5.211-17.751-13.227-25.445-21.284c7.602-2.812,15.169-5.682,22.666-8.658&#10;&#9;c5.476,3.912,10.67,8.324,15.757,12.719C1043.435,798.297,1046.503,801.006,1049.404,803.876z M836.428,785.539&#10;&#9;c2.576-0.871,5.163-1.695,7.745-2.543c2.824,1.766,5.579,3.62,8.28,5.543c-8.616,3.059-17.233,6.112-25.85,9.168&#10;&#9;c-2.148-2.175-4.27-4.375-6.362-6.604C825.629,789.225,831.023,787.367,836.428,785.539z M705.769,831.635&#10;&#9;c2.493-0.831,4.975-1.69,7.463-2.534c1.077,2.605,2.308,5.13,3.682,7.577c-4.451,1.57-8.913,3.109-13.371,4.658&#10;&#9;c-1.956-2.349-3.895-4.711-5.791-7.109C700.425,833.362,703.105,832.523,705.769,831.635z M571.432,871.002&#10;&#9;c2.056-0.612,4.118-1.201,6.176-1.805c2.964,3.51,6,6.953,9.075,10.358c-5.929,2.302-13.371,5.981-19.659,7.253&#10;&#9;c-3.004-3.916-6.205-8.069-9.665-11.65C562.051,873.777,566.744,872.398,571.432,871.002z" style="fill: rgb(77, 77, 77);"/>
</svg>